<?xml version="1.0" standalone="no"?>
<!DOCTYPE svg PUBLIC "-//W3C//DTD SVG 1.1//EN" "http://www.w3.org/Graphics/SVG/1.1/DTD/svg11.dtd" >
<svg xmlns="http://www.w3.org/2000/svg">
<metadata></metadata>
<defs>
<font id="BrushScriptStdRegular" horiz-adv-x="1157" >
<font-face units-per-em="2048" ascent="1399" descent="-649" />
<missing-glyph horiz-adv-x="696" />
<glyph horiz-adv-x="0" />
<glyph horiz-adv-x="2048" />
<glyph unicode=" "  horiz-adv-x="696" />
<glyph unicode="&#x09;" horiz-adv-x="696" />
<glyph unicode="&#xa0;" horiz-adv-x="696" />
<glyph unicode="!" horiz-adv-x="802" d="M145 76q0 40 13.5 96.5t42.5 105t63 48.5q53 0 90 -39t37 -92q0 -29 -8 -64.5t-23.5 -71t-43 -59t-60.5 -23.5q-41 0 -76 30t-35 69zM264 469q0 16 8 43t15.5 46t22 51t16.5 38l288 660q1 3 7.5 18t9.5 21t9.5 18.5t12.5 18.5l14 14t17.5 11t20.5 3q10 0 26.5 -3.5 t35 -8.5t24.5 -6q3 -1 15.5 -4t21.5 -6t19.5 -8t16.5 -12.5t6 -16.5q0 -10 -4 -24.5t-12.5 -34t-14.5 -32.5t-16.5 -33.5t-11.5 -23.5l-367 -715q11 -22 11 -34q0 -31 -19.5 -61t-48.5 -30q-36 0 -79.5 37.5t-43.5 73.5z" />
<glyph unicode="&#x22;" horiz-adv-x="681" d="M78 1337q0 121 88 121t88 -121q0 -34 -39 -463q-3 -31 -17.5 -47t-31.5 -16t-31.5 16t-17.5 47q-39 429 -39 463zM428 1337q0 121 88 121t88 -121q0 -34 -39 -463q-3 -31 -17.5 -47t-31.5 -16t-31.5 16t-17.5 47q-39 429 -39 463z" />
<glyph unicode="#" horiz-adv-x="1153" d="M109 385l30 129h219l121 285h-211l33 129h229l162 379h131l-161 -379h249l160 379h133l-160 -379h195l-33 -129h-215l-121 -285h207l-33 -129h-227l-164 -385h-131l162 385h-250l-162 -385h-131l162 385h-194zM487 514h250l123 285h-250z" />
<glyph unicode="$" d="M-70 150q-2 34 45.5 100.5t104.5 66.5l393 5l76 307q-52 10 -98 17.5t-66.5 10.5t-48 10t-60.5 19q-65 23 -65 111q0 38 25.5 120t46.5 117q23 40 80.5 79.5t131.5 69.5t133 49.5t117 35.5q2 6 14 39t17.5 47.5t19.5 49t23 53.5t25.5 50t30 49t32.5 40t37 34t40 20.5 t44 8.5q25 0 41 -21t16 -47q0 -45 -38 -90q-49 -61 -69.5 -96t-45.5 -107l190 13q108 7 203 -25q22 -5 30 -12t5 -27q-8 -77 -25.5 -117t-48 -61.5t-96.5 -44.5q-44 -16 -60 -22.5t-45 -21.5t-55 -34q-41 -31 -67 -31q-10 0 -17.5 7t-7.5 16q1 5 3.5 10t8 11t10.5 11 t14 12.5t16.5 13.5t20.5 15.5t22 16t25 18t27 19.5l-4 4l-247 -33l-89 -309q17 -6 63.5 -20.5t78.5 -25.5t75.5 -31.5t70.5 -40.5t47 -50.5t20 -64.5q0 -77 -48 -146.5t-120 -116.5q-129 -85 -340 -141l-47 -270q-8 2 -42 9.5t-54 13.5t-39 23.5t-19 41.5q0 29 11.5 78 t11.5 63q-85 -7 -242 -2q-234 5 -242 103zM391 844q0 -49 191 -80l71 235q-52 -10 -157 -65.5t-105 -89.5zM647 344q5 2 32 10t47 15t51 18t53.5 22t44.5 24t33.5 26.5t11.5 27.5q0 27 -38 48t-101 38t-68 19z" />
<glyph unicode="%" horiz-adv-x="1316" d="M178 948q0 74 30 146.5t77.5 127.5t104 99t110.5 68.5t96 29.5q25 3 49.5 -17.5t24.5 -45.5q0 -14 -21 -35q57 -1 81 -32t24 -91q0 -95 -54.5 -207t-148.5 -194t-191 -82q-82 0 -132 74t-50 159zM209 53q0 111 211 365l416 500q222 267 489 444q13 -48 3 -97t-64 -123 t-170 -196q-167 -174 -348 -402.5t-302 -420.5q-4 -6 -18.5 -28.5t-21 -33t-16 -28.5t-15.5 -33q-6 -18 -9 -25t-10 -20.5t-17.5 -19t-25.5 -5.5q-41 0 -71.5 40.5t-30.5 82.5zM328 948q0 -15 6 -38t10 -23q38 -6 83.5 22t83.5 73t70.5 95t51 92t18.5 60q0 10 -11 17t-24 7 q-17 0 -39.5 -21.5t-37.5 -21.5t-39 19q-67 -43 -119.5 -125t-52.5 -156zM752 219q0 92 45.5 180t112 148t136.5 98.5t123 44.5q25 3 49.5 -17.5t24.5 -45.5q0 -15 -20 -35q57 -1 80.5 -32t23.5 -91q0 -70 -33 -154.5t-86 -157.5t-127 -122t-147 -49q-82 0 -132 74t-50 159z M901 219q0 -15 6.5 -38t10.5 -23q38 -6 83.5 22t83.5 73t70.5 95t51 92t18.5 60q0 10 -11 17t-24 7q-17 0 -40 -21.5t-38 -21.5t-39 19q-67 -43 -119.5 -125t-52.5 -156z" />
<glyph unicode="&#x26;" horiz-adv-x="1191" d="M-10 287q6 65 22.5 121t38 98.5t54 80.5t64 65.5t75.5 56t81.5 49t87.5 47.5q18 9 27 14q-14 96 15 187t88 160.5t137 123t164 83t166 32.5q77 3 139.5 -54t62.5 -134q0 -160 -184 -269l-305 -178q20 -132 100 -254l328 260q2 -7 10 -29.5t11 -34t8.5 -30t7.5 -34 t2 -30.5q0 -36 -14.5 -70t-43.5 -67t-53 -55.5t-63.5 -55.5t-54.5 -46q7 -26 25 -41t38 -15q12 0 32 8.5t27 8.5q12 0 22.5 -12.5t10.5 -24.5q0 -29 -32 -88.5t-78.5 -110.5t-79.5 -51q-18 0 -45.5 19.5t-48.5 40.5t-50 52.5t-34 36.5q-9 -6 -55 -34t-62.5 -37t-57.5 -32 t-66 -32.5t-61.5 -23t-69 -18.5t-65.5 -5q-141 0 -237.5 93.5t-83.5 228.5zM197 309q-2 -37 96 -37q125 0 307 99l-115 260q-77 -32 -181 -142.5t-107 -179.5zM696 952q44 27 72.5 45t84.5 58t90 72.5t61.5 74t27.5 76.5q0 13 -11 20t-24 5q-62 -12 -110.5 -38.5t-77.5 -58 t-51.5 -76.5t-34.5 -82.5t-25 -86.5q0 -2 -0.5 -3t-1 -3t-0.5 -3z" />
<glyph unicode="'" horiz-adv-x="454" d="M139 1337q0 121 88 121t88 -121q0 -34 -39 -463q-3 -31 -17.5 -47t-31.5 -16t-31.5 16t-17.5 47q-39 429 -39 463z" />
<glyph unicode="(" horiz-adv-x="667" d="M100 88q0 313 193 743q23 53 54 117t82.5 156.5t101 165t106.5 124.5t102 52q36 0 55 -21t19 -57q0 -33 -45 -98q-165 -233 -300.5 -585t-135.5 -605q0 -60 16 -178q8 4 21 4q16 0 23 -29.5t7 -52.5q0 -57 -37 -103.5t-92 -46.5q-170 0 -170 414z" />
<glyph unicode=")" horiz-adv-x="667" d="M35 -248q0 33 45 98q165 233 300.5 585t135.5 605q0 61 -16 179q-10 -5 -21 -5q-16 0 -23 29.5t-7 52.5q0 57 37 103.5t92 46.5q170 0 170 -414q0 -313 -193 -743q-23 -53 -54 -117t-82.5 -156.5t-101 -165t-106.5 -124.5t-102 -52q-36 0 -55 21t-19 57z" />
<glyph unicode="*" horiz-adv-x="1122" d="M236 725q0 40 35.5 79.5t77.5 64.5t97.5 55.5t75.5 44.5q-65 62 -139 104q-27 15 -37 21.5t-23 20t-16.5 30t-3.5 43.5q0 31 12.5 55.5t40.5 24.5q15 0 28 -3.5t26 -13t19.5 -15.5t22 -22t19.5 -20q19 -19 59 -52.5t58 -51.5l4 147q0 7 0.5 26t1.5 27t5.5 21t14.5 24 q59 66 95 66q22 0 35.5 -14.5t13.5 -36.5q0 -17 -13 -56q-2 -6 -14 -102l-12 -111q188 113 260 113q23 0 35.5 -12.5t29.5 -39.5t39 -46l-319 -148l182 -143q4 -4 15.5 -14.5t18 -17t13 -17.5t6.5 -21q0 -17 -23 -65.5t-26 -61.5l-252 219l-18 -344q-18 6 -45.5 13t-40 12 t-27.5 15.5t-20.5 29.5t-5.5 49q0 35 4 71t11.5 86.5t10.5 69.5l-194 -133q-7 -4 -23 -17t-29.5 -20.5t-25.5 -7.5q-27 0 -43 22.5t-16 51.5z" />
<glyph unicode="+" horiz-adv-x="1314" d="M283 471v123h403v412h129v-412h402v-123h-402v-448h-129v448h-403z" />
<glyph unicode="," horiz-adv-x="616" d="M100 -123q69 90 93 139q-25 8 -38 13.5t-26.5 21t-13.5 37.5q0 64 61.5 131.5t126.5 67.5q105 0 105 -47q0 -39 -34.5 -117t-62.5 -111q-22 -28 -42.5 -49.5t-35.5 -36t-31.5 -24t-25 -15t-23 -8t-18.5 -3t-18.5 0t-16.5 0.5z" />
<glyph unicode="-" horiz-adv-x="655" d="M0 475v180h614v-180h-614z" />
<glyph unicode="." horiz-adv-x="616" d="M113 76q0 29 16 69t42.5 77.5t66.5 59.5t81 13q2 0 20.5 -3t28.5 -6t24 -9.5t21 -18.5t7 -29q0 -3 -6 -27t-20.5 -62t-34 -72.5t-50.5 -58t-67 -19.5q-27 3 -44.5 6.5t-39.5 12t-33.5 25.5t-11.5 42z" />
<glyph unicode="/" horiz-adv-x="946" d="M70 -51q0 59 41.5 165.5t130 267t136 243t147.5 247.5q15 25 22 37q277 464 522 664q18 -67 18 -113q0 -11 -2 -23.5t-4.5 -22t-8.5 -23.5t-9.5 -21.5t-12 -22.5t-11.5 -20.5t-13 -21.5t-12 -19l-406 -659q-158 -258 -225.5 -405.5t-140.5 -366.5q-15 -45 -39 -45 q-57 0 -95 41t-38 98z" />
<glyph unicode="0" d="M92 319q0 162 86.5 338.5t212.5 315.5q129 143 325 250.5t302 107.5q59 0 121.5 -53t62.5 -90q0 -13 -29.5 -23t-33.5 -14q33 -10 54.5 -33t31 -55t13 -60t3.5 -65q0 -98 -29 -205.5t-81 -211.5t-130 -199.5t-170 -170t-206 -122.5t-234 -56q-90 -7 -160 44.5 t-104.5 131.5t-34.5 170zM324 311q-1 -18 1 -41.5t8 -51t20 -46t34 -18.5q42 0 121 42t119 78l200 185q88 98 176.5 243.5t88.5 235.5q0 41 -20 81t-58 40q-23 0 -50.5 -19t-48.5 -38t-28 -19q-11 0 -16 12.5t-5 24.5q-133 -75 -237.5 -167.5t-168 -186.5t-97.5 -183.5 t-39 -171.5z" />
<glyph unicode="1" d="M309 113q0 71 49 208t95 214q150 247 374 544l-4 4l-194 -73q-42 -21 -56 -21q-24 0 -16 47q1 10 2.5 18t6 16t6.5 13.5t10 12.5t10.5 10t13.5 10t13.5 8.5t16 9.5t15.5 9q307 176 357 176q35 0 64.5 -54.5t29.5 -86.5q0 -40 -29 -95.5t-212 -366.5q-16 -28 -26 -44.5 t-25.5 -43.5t-29.5 -50q-239 -402 -239 -547q0 -12 3 -35.5t3 -36.5q0 -29 -29 -29q-11 0 -43 19q-15 9 -46 23t-47 23.5t-36 25.5t-28.5 39t-8.5 53z" />
<glyph unicode="2" d="M78 225q0 30 19 65t57.5 73t79 73t102.5 76.5t107.5 71.5t113.5 68.5t102.5 58t92.5 51t65 35.5q36 20 52.5 29.5t59 35t66.5 45.5t53.5 47.5t43.5 55.5t14 55t-25 40t-53 13q-35 0 -74 -6t-86 -21t-79 -25t-88.5 -35t-76.5 -34t-81.5 -38.5t-67.5 -32.5v-4l121 -15 q3 0 15 -1.5t18 -2.5t16 -4t15 -7t9.5 -11.5t4.5 -16.5q0 -33 -51 -37l-222 -43q-4 -1 -20.5 -3.5t-30 -4.5t-18.5 -2q-26 0 -36.5 25t-10.5 55q0 55 37 141.5t77 130.5q56 63 175.5 110.5t237.5 68t214 20.5q63 0 101.5 -11t70 -44.5t44.5 -98.5t13 -170q0 -32 -1.5 -48 t-10.5 -47.5t-27 -54.5t-54.5 -60t-89.5 -73.5t-133.5 -86t-186.5 -105.5q-160 -84 -279 -155.5t-223 -153.5l4 -4l797 139q-3 -9 -9 -26q-14 -40 -21.5 -60t-22 -55t-27 -53.5t-32.5 -44t-42 -40t-52.5 -28t-66.5 -20.5q-239 -44 -405 -52t-205 23q-43 34 -66.5 100.5 t-23.5 128.5z" />
<glyph unicode="3" d="M-63 145q0 39 70.5 119t107.5 80q11 0 20.5 -7t9.5 -18q0 -6 -16.5 -26.5t-30.5 -34.5q118 -47 199 -47q107 0 221 28.5t197 68t136.5 81t53.5 68.5q-1 32 -34.5 56t-78 36t-103.5 19t-95.5 8.5t-69.5 1.5q-86 0 -182 -17q-32 -8 -59 -8q-38 0 -31 43q14 101 64 153.5 t159 59.5q53 4 157 23t225.5 49.5t210.5 77t89 94.5q0 85 -204 84h-7q-211 0 -440 -86v-4l43 -9q76 -13 76 -34q0 -19 -37 -25q-66 -14 -191 -14q-49 0 -76.5 29.5t-27.5 80.5q0 36 17.5 65.5t52 52t60 34.5t66.5 28q158 62 402 62q46 0 81.5 -1.5t81 -7.5t79 -16.5t68 -30 t56.5 -45.5t36 -66t14 -89q0 -56 -36 -116t-87 -93q-85 -52 -244 -84l-309 -68v-4q15 -3 50.5 -8.5t55 -9t54 -11.5t55.5 -14.5t51 -18.5t49 -25t40.5 -32t34.5 -41t22.5 -50.5t11.5 -61.5q3 -43 -23 -99t-87 -116.5t-146.5 -111.5t-215 -84t-278.5 -33q-97 0 -172.5 17.5 t-116 44t-60 53t-19.5 50.5z" />
<glyph unicode="4" d="M76 504q0 70 79 172t160 172q186 161 486 315t403 154q30 0 54 -14.5t24 -42.5q0 -26 -43 -64q54 -26 41 -92q-7 -61 -53 -119q-145 -180 -291 -412q26 0 78 5.5t78 5.5q75 0 75 -52q0 -20 -19 -56.5t-44 -76.5t-29 -49l-287 -35q-2 -7 -8 -26.5t-7.5 -25t-5.5 -19.5 t-5 -19t-3 -15.5t-3 -17t-1.5 -14.5t-0.5 -16q0 -37 41 -101q-15 -6 -72 -36.5t-107 -54t-67 -23.5q-20 0 -31.5 20.5t-14.5 40.5t-3 41q0 35 7 76t18 91.5t16 82.5q-44 -2 -121 -7t-110.5 -6t-77.5 0.5t-65 10t-30 25.5q-61 111 -61 182zM315 561q0 -17 76 -20 q90 -7 277 16l491 594l-4 4q-189 -86 -266 -131q-150 -88 -264 -168t-175.5 -137.5t-92.5 -94.5t-42 -63z" />
<glyph unicode="5" d="M-2 156q0 52 45 98t104.5 72.5t107.5 41.5t64 15q33 0 33 -23q0 -16 -43 -45l-125 -86l4 -4q173 19 323 65.5t242.5 102t144.5 111.5t52 100q0 25 -27.5 44t-58.5 26.5t-55 7.5q-93 0 -254 -33q-32 -6 -70 -15t-61.5 -14.5t-34.5 -5.5q-29 0 -52.5 25t-37 61.5t-20.5 72 t-7 61.5q0 78 101 184l211 225l27 27t26 20.5t22.5 14.5t24.5 10t22.5 6t26.5 3t27.5 1h33.5h37h494q-88 -159 -108 -188q-42 -60 -94 -75q-39 -12 -122 -11l-348 4q-104 -82 -174 -209q162 43 285 43q142 0 239 -72t97 -207q0 -128 -74 -252q-100 -167 -311.5 -272.5 t-505.5 -105.5q-61 0 -99.5 6.5t-61.5 17t-33.5 35t-13.5 48.5t-3 69z" />
<glyph unicode="6" d="M152 391q0 103 43.5 210.5t111 197.5t159.5 178t179 153t178 121q79 48 115.5 60t118.5 12q2 0 14.5 0.5t26 0.5h31.5t33.5 -2t29 -4.5t21.5 -8t8 -13.5q0 -13 -14 -25t-29 -18q-72 -33 -165.5 -95.5t-156.5 -117.5l-281 -243l5 -4q13 6 48 22.5t53.5 24.5t48.5 19 t56.5 15.5t53.5 4.5q110 0 177.5 -80t67.5 -193q0 -94 -46.5 -192.5t-117 -174.5t-150 -138t-150.5 -95t-113 -33q-44 0 -103.5 30t-116.5 81.5t-96.5 133.5t-39.5 173zM383 309q0 -137 51 -129q45 8 102 34.5t116.5 71t109.5 99t82.5 125t34.5 141.5q0 25 -3 40t-17 26.5 t-40 11.5q-87 0 -317 -199q-35 -31 -47 -42.5t-31.5 -33.5t-25 -39t-10.5 -43.5t-5 -62.5z" />
<glyph unicode="7" d="M254 981q0 29 58 108t98 121q35 36 95.5 59t211.5 39.5t389 16.5q87 0 113 -37q15 -24 33 -79.5t18 -82.5q0 -11 -6 -23.5t-13 -22t-21 -22.5t-21.5 -19.5t-23.5 -18.5t-18 -14q-105 -89 -188.5 -178t-161 -196.5t-136 -235t-95.5 -271.5q27 10 49 10q19 0 22 -20 q2 -15 -54 -57.5t-129.5 -80.5t-113.5 -40q-54 -3 -79 33.5t-25 95.5q0 47 22.5 108t49.5 111.5t75 119.5t73.5 102.5t70.5 90.5l434 455q-67 4 -130.5 1.5t-107.5 -2t-87 -5t-69.5 -7.5t-55 -9.5t-43.5 -11.5t-35 -13t-29 -13.5t-25.5 -13.5t-25.5 -14q-3 -2 -17.5 -10.5 t-26.5 -13.5t-22 -5q-18 0 -35.5 13.5t-17.5 31.5z" />
<glyph unicode="8" d="M141 137q0 40 21.5 86.5t49.5 85t75.5 87.5t79.5 77.5t83 73t66 57.5q-5 6 -23.5 29.5t-24.5 31t-22.5 29t-23 31.5t-19.5 30.5t-18 33.5t-13.5 33t-12 36t-6.5 36t-3 40q0 61 25 115.5t68 95t93.5 70t108.5 49.5q180 60 391 73q85 3 158.5 -6t101.5 -18q18 -5 25.5 -13 t7.5 -26q0 -24 -11.5 -52.5t-20 -43t-29.5 -45.5q-35 -53 -55 -68t-58 -8q8 -37 -2 -56.5t-63 -68.5l-340 -303q54 -66 77 -136t25 -161q1 -40 -10 -82t-43.5 -90.5t-83 -86.5t-137.5 -66.5t-199 -35.5q-51 -3 -104.5 14t-93.5 57.5t-40 94.5zM322 164q0 -16 5 -25.5 t17.5 -13t20 -4t26.5 -0.5q63 0 125.5 22t109 70.5t46.5 112.5q0 33 -11 64.5t-21.5 49t-35.5 52.5l-172 -158q-41 -37 -75.5 -84.5t-34.5 -85.5zM557 913q0 -31 36.5 -89.5t76.5 -98.5l395 340l-158 12q-159 13 -254.5 -39.5t-95.5 -124.5z" />
<glyph unicode="9" d="M209 754q0 73 53 156t142 156t197 132.5t227.5 94t222.5 32.5q37 -1 86 -43t81.5 -91t32.5 -73q0 -8 -2.5 -15.5t-8 -15t-11.5 -14t-15.5 -13.5t-15.5 -12t-17.5 -11.5t-16.5 -10t-16 -9.5t-13 -7l-76 -47q-3 -2 -10.5 -6.5t-11 -6.5t-10 -5.5t-11 -5t-10.5 -2.5t-13 -1 q-9 0 -15.5 8t-6.5 17q0 17 106 106l-4 4q-142 -36 -256.5 -81.5t-188 -91.5t-122.5 -95.5t-69.5 -93t-20.5 -84.5q0 -18 7.5 -25.5t25.5 -7.5q108 0 273.5 84.5t270.5 173.5q107 86 146 86q27 0 68.5 -14.5t41.5 -36.5q0 -34 -67 -111l-539 -633q-89 -103 -149 -144.5 t-125 -47.5q-20 -2 -32.5 8t-12.5 29q0 9 7 25.5t14.5 28.5t18.5 29.5t13 20.5q5 8 15.5 25.5t15 24t14 17.5t18 14.5t22.5 6.5t32 2l387 461l-4 4q-94 -66 -221 -134.5t-193 -68.5q-21 0 -53 15.5t-66.5 45t-65 67t-50 86.5t-19.5 98z" />
<glyph unicode=":" horiz-adv-x="616" d="M98 76q0 40 26.5 95t76.5 95.5t104 28.5q2 0 20.5 -3t28.5 -6t24 -9.5t21 -18.5t7 -29q0 -3 -6 -27t-20.5 -62t-34 -72.5t-51 -58t-67.5 -19.5q-27 3 -44.5 6.5t-39.5 12t-33.5 25.5t-11.5 42zM342 561q0 40 26.5 95t76.5 95.5t104 28.5q3 -1 21 -3.5t27.5 -5.5 t23.5 -9.5t21 -18t7 -28.5q0 -3 -6 -27t-20.5 -62t-34 -73t-50.5 -58.5t-67 -19.5q-27 3 -44.5 6.5t-39.5 12t-33.5 25.5t-11.5 42z" />
<glyph unicode=";" horiz-adv-x="616" d="M98 -123q66 86 92 139q-25 8 -38 14t-26 21t-13 37q0 64 61.5 131.5t126.5 67.5q105 0 105 -47q0 -39 -34.5 -117t-62.5 -111q-22 -28 -42.5 -49.5t-35.5 -36t-31.5 -24t-25 -15t-23 -8t-18.5 -3t-18.5 0t-16.5 0.5zM344 563q0 40 26.5 95t76.5 95.5t104 28.5 q3 -1 21 -3.5t27.5 -5.5t23.5 -9.5t21 -18t7 -28.5q0 -3 -6 -27t-20.5 -62t-34 -73t-50.5 -58.5t-67 -19.5q-27 3 -44.5 6.5t-39.5 12t-33.5 25.5t-11.5 42z" />
<glyph unicode="&#x3c;" horiz-adv-x="1327" d="M303 469v125l922 459v-138l-795 -380v-5l795 -385v-137z" />
<glyph unicode="=" horiz-adv-x="1263" d="M233 264v123h932v-123h-932zM233 680v123h932v-123h-932z" />
<glyph unicode="&#x3e;" horiz-adv-x="1327" d="M303 915v138l922 -459v-127l-920 -459v137l793 383v4z" />
<glyph unicode="?" horiz-adv-x="956" d="M246 76q0 40 13.5 96.5t42.5 105t63 48.5q53 0 90 -39t37 -92q0 -41 -13.5 -89t-46.5 -88.5t-76 -40.5q-41 0 -75.5 30t-34.5 69zM283 1098q0 29 18 83t35 83q26 44 114 77.5t173 47.5t145 14q124 0 187 -48.5t63 -168.5q0 -187 -144 -357l-266 -315q-6 -7 -19 -21.5 t-18.5 -21.5t-10.5 -20.5t-5 -28.5q0 -9 6 -27.5t6 -27.5q0 -22 -12 -35t-33 -13q-48 0 -82 49.5t-34 98.5q0 115 147 254l235 217q3 3 30 26.5t36.5 34t28 31.5t25.5 40t7 38q0 25 -9.5 42t-22 26t-34.5 13.5t-37 5.5t-40 1q-56 0 -115.5 -13t-89 -23t-108.5 -40l20 -8 q19 -7 28 -10.5t21.5 -14.5t12.5 -24q0 -17 -13 -27t-30 -10q-7 0 -37 6l-80 12q-3 0 -21 0.5t-23.5 1t-19 4t-19 9t-10.5 15.5t-5 24z" />
<glyph unicode="@" horiz-adv-x="1626" d="M109.5 153.5q-19.5 117.5 17.5 256.5q37 151 127 288t215.5 240.5t290 165t340.5 61.5q105 0 192 -21.5t148 -61t105 -93.5t62.5 -119.5t21.5 -139.5t-19 -152q-27 -110 -84.5 -201t-128 -147.5t-148 -87.5t-151.5 -31q-72 0 -107.5 47t-17.5 133h-6q-71 -82 -158.5 -131 t-177.5 -49q-99 0 -146.5 72t-17.5 192q48 197 218.5 332t377.5 135q146 0 235 -47l-159 -359q-93 -212 12 -215q37 0 82.5 20t95 59t93 109.5t65.5 159.5q35 143 -0.5 255t-146.5 178.5t-285 66.5q-90 0 -189 -29t-195.5 -86.5t-179.5 -134.5t-146 -180t-91 -217 q-33 -130 -14.5 -232.5t77.5 -173.5t152 -108t211 -37q184 0 336 76l10 -92q-183 -84 -391 -84q-152 0 -266 47.5t-177 132.5t-82.5 202.5zM633 406q-16 -67 6 -111.5t90 -44.5q74 0 162 81t131 173l94 207q-48 16 -106 16q-119 0 -231 -95t-146 -226z" />
<glyph unicode="A" horiz-adv-x="1595" d="M-150 -72q0 59 109 172t242 160l159 176q-53 -4 -92 -4q-33 0 -56 3q-50 6 -50 42q0 34 91.5 128t166.5 118q40 15 84 23q37 7 65 7q5 0 10 -1q31 -2 31 -15q0 -15 -37 -21t-74.5 -12.5t-37.5 -21.5q0 -18 28 -18q99 6 125 6l459 381q426 352 539 352q30 0 50.5 -28.5 t20.5 -59.5q0 -12 -4 -27.5t-13 -34.5t-14.5 -30t-18 -33.5t-13.5 -24.5l-254 -444q40 0 65.5 2t29 4t15.5 1.5t23.5 -3t54.5 -12.5q-70 -84 -153 -234l-164 -8l-129 -252q0 -15 11 -24t26 -9q8 0 15 1t16.5 6t16.5 9t22.5 15t27 20t37 28t45.5 34l37 -53 q-264 -264 -418 -264q-52 0 -78 34t-26 88q0 2 -1 6t-1 8t2 15.5t7 25.5t16 40.5t27 59.5t41 82.5t58 109.5l-446 -15l-420 -418q-1 -1 -19 -19.5t-23 -23t-23 -21t-26.5 -23t-25.5 -18.5t-29 -16.5t-27 -9t-28 -4.5q-72 0 -72 45zM823 694l4 -4l314 23l278 467l-4 4z" />
<glyph unicode="B" horiz-adv-x="1454" d="M111 926q0 14 26 65t68 107q30 40 49.5 63.5t55 55t67.5 43.5q153 59 395.5 107t398.5 48q101 0 180 -15.5t126.5 -40t78 -58.5t41.5 -67t11 -69q0 -48 -18.5 -92.5t-47 -78.5t-76 -66.5t-91 -55.5t-108.5 -45.5t-111.5 -36.5t-116.5 -30t-108 -23.5t-101.5 -19 t-81.5 -15.5l-41 -36q20 -4 96.5 -15.5t137 -21.5t142.5 -31.5t137 -46t94.5 -64t39.5 -86.5q0 -37 -29.5 -86t-95.5 -105t-156.5 -104t-227.5 -84t-294 -45q-14 -1 -27 -1q-44 0 -90 8q-58 10 -113 34t-88.5 72.5t-33.5 114.5q0 28 1 37t10.5 37.5t33 63t67.5 96t115 155.5 q-119 8 -159 33q-29 18 -29 47q0 39 70 61.5t167.5 33.5t110.5 15l56.5 56.5t60.5 60t59.5 55t67 52t68.5 39.5t78 29t83 9q-12 -29 -46 -75t-153 -185q111 15 202.5 37t151.5 46t104 49t67 49t33 43t9 34q-1 19 -14.5 37t-44.5 36q-30 18 -92 26q-35 5 -78 5q-32 0 -68 -3 q-39 -3 -100.5 -13t-198 -45t-276.5 -86q29 -14 29 -30q0 -36 -74 -47q-37 -6 -65.5 -11.5t-57 -13.5t-46 -13.5t-55 -18.5t-61.5 -21q-45 -15 -63 -15q-51 0 -51 56zM430 322q0 -31 25.5 -54.5t64 -35.5t73.5 -17.5t64 -5.5q88 1 199 38t188.5 88t77.5 91q0 37 -65.5 65.5 t-157.5 43t-167 21.5t-116 7l-114 -125q-2 -2 -8.5 -9t-9.5 -10t-9.5 -10.5t-9.5 -11.5t-9 -11.5t-9 -12.5t-6.5 -12t-5.5 -13t-3.5 -13t-1.5 -13z" />
<glyph unicode="C" horiz-adv-x="1464" d="M-18 109q0 108 41.5 226t111.5 225.5t146.5 199t162.5 172.5q72 69 173.5 148.5t222 159.5t243.5 132.5t209 52.5q94 0 149.5 -49.5t59.5 -144.5v-11q0 -96 -79 -230q-84 -142 -204.5 -268t-257.5 -221.5t-231 -109.5q-8 -1 -16 -1q-37 0 -65 23q-34 28 -34 76 q0 75 99 160l151 133q80 80 105 80q34 0 20 -47l4 -4q143 123 235.5 246.5t92.5 177.5q0 26 -15 36.5t-40 4.5q-1 0 -19 -3.5t-35.5 -9t-48.5 -16.5t-65.5 -30t-79.5 -46.5t-97 -69.5t-110.5 -94.5t-129 -126t-144.5 -159.5q-108 -127 -178 -281t-70 -270q0 -111 54.5 -171 t162.5 -60q91 0 220 53.5t258 137t235.5 163.5t189.5 153q1 -10 1 -20q0 -38 -10 -66q-12 -35 -29.5 -54.5t-65.5 -65.5q-143 -138 -285 -240.5t-260 -158.5t-214 -82.5t-173 -26.5q-173 0 -282 101.5t-109 275.5z" />
<glyph unicode="D" horiz-adv-x="1646" d="M111 950q0 20 28 142q19 76 64.5 118t130.5 80q147 63 342 103.5t354 40.5q134 0 267 -25.5t223 -83.5q107 -68 161 -191.5t54 -261.5q0 -106 -41 -208t-112 -185t-154 -150.5t-179 -121.5q-169 -95 -413 -162.5t-433 -67.5q-135 0 -176 23q-47 24 -47 109q0 54 16 107.5 t51 110t59.5 90t70.5 91.5l489 610q-249 -23 -440 -96v-4h55q1 0 9.5 0.5t17 0.5h21t23 -1.5t20 -4t15 -7.5t5.5 -11q0 -16 -21.5 -25.5t-42.5 -11.5q-36 -6 -161 -42.5t-179 -36.5q-36 0 -56.5 18t-20.5 53zM418 246q23 -35 117 -37h8q99 0 221 24q128 25 242 64 q155 55 270.5 123.5t181 141t96.5 143t31 141.5q0 222 -403 266q-51 6 -201 14q-13 -53 -26 -83t-42 -68l-452 -590q-29 -39 -41 -67q-10 -25 -11 -39q0 -12 9 -33z" />
<glyph unicode="E" horiz-adv-x="1437" d="M43 104q0 44 23 95.5t80.5 114t143.5 121t225 117t312 101.5v6q-135 4 -236.5 19t-162.5 36.5t-98 52t-50.5 61t-13.5 67.5q0 63 35.5 131t113.5 137t188.5 123.5t276 88.5t359.5 34h26h34.5t36.5 -0.5t41 -2.5t38.5 -4.5t39 -7.5t31.5 -11t26.5 -15t15.5 -20l4 -86 q1 -29 1 -44.5t-0.5 -32t-6.5 -25t-12 -17.5t-21.5 -15.5t-30.5 -12.5t-43 -15q-57 -19 -122 -51.5t-107.5 -56t-56.5 -25.5q-6 -2 -14.5 4.5t-8.5 15.5q0 19 47 64t94 82h-13q-132 1 -252 -19q-126 -20 -214 -52t-153 -69.5t-95 -71t-26 -55.5q4 -23 17 -33q63 -47 454 -47 q82 0 180 2q137 0 137 -45q0 -26 -26.5 -70t-49.5 -63q-34 -30 -194 -53q-149 -24 -277.5 -66t-211 -87.5t-142 -92.5t-85.5 -84t-26 -61q0 -28 45 -45.5t127 -20.5q25 -1 50 -1q193 0 434 73q66 20 131.5 53.5t156 89t123.5 74.5q2 -33 2 -63q0 -77 -15 -127 q-21 -69 -105 -138q-27 -23 -65 -48.5t-110.5 -61t-153 -62.5t-194.5 -45q-103 -16 -209 -16h-24q-129 3 -281 45q-62 18 -102.5 90.5t-40.5 140.5z" />
<glyph unicode="F" horiz-adv-x="1423" d="M96 813q0 40 61 155t97 158q37 47 93.5 78.5t95.5 42.5t120 29q251 57 423.5 87.5t241.5 36t146 5.5q211 0 211 -109q0 -101 -113 -325t-208 -363l137 -22l-82 -131q-2 -4 -7.5 -13.5t-8 -13.5t-7.5 -11.5t-9.5 -11.5t-10 -8.5t-12.5 -7.5q-20 -9 -49 -16t-68.5 -14 t-50.5 -9l-351 -368q-44 -46 -117 -111.5t-163 -127.5t-133 -62q-22 0 -35.5 14.5t-13.5 36.5q0 38 42 100t83 105q46 52 94.5 80.5t118.5 48.5l239 253l-305 -24q-21 -3 -61 2.5t-43 24.5q-2 17 -2 32q0 73 55 109q45 29 128.5 58t147.5 40l314 60q64 85 148.5 245.5 t84.5 227.5q0 12 -4 20t-8 11.5t-16 5.5t-16.5 2h-20.5l-2 1h-6h-11t-20 -1t-30 -3t-43 -5.5t-58 -8.5q-397 -66 -689 -192l5 -4l106 2q39 0 39 -19q0 -6 -3.5 -11t-8.5 -8t-13 -6t-13 -4.5t-13 -3.5t-10 -2l-238 -73q-66 -20 -102.5 -22t-46 8.5t-9.5 31.5z" />
<glyph unicode="G" horiz-adv-x="1427" d="M63 383q0 123 76 268t176 248q47 52 111.5 107t166.5 120.5t216.5 119.5t268 98.5t315.5 62.5q7 1 13 1q45 0 71 -36q16 -22 26 -60.5t10 -70.5q0 -36 -21.5 -60.5t-61.5 -50.5q-286 -186 -343 -186q-12 0 -19 8.5t-7 20.5q0 20 55 59l86 70l-4 4q-146 -43 -284 -113 t-241 -147t-189.5 -159.5t-139 -154.5t-79.5 -127q-22 -45 -22 -71q0 -5 1 -10q9 -37 24.5 -57.5t46.5 -20.5q58 0 140 63l749 570q26 26 47 26q20 0 76 -35q51 -27 51 -55q0 -16 -28 -72q-40 -80 -91.5 -165t-145.5 -227.5t-138 -211.5l4 -4l451 291q-3 -57 -10 -76 q-18 -45 -114 -117q-53 -40 -145 -102l-330 -223q-35 -48 -100 -120t-144 -148t-159 -129.5t-129 -53.5q-36 0 -55 24.5t-21 61.5v7q0 97 109 214q112 121 268 197q228 292 328 506l-4 4l-228 -166q-3 -2 -36 -27t-43.5 -32.5t-43.5 -31t-49.5 -33t-47 -28t-50.5 -27 t-45.5 -18t-47 -12t-40.5 -0.5q-115 13 -172.5 92.5t-57.5 194.5z" />
<glyph unicode="H" horiz-adv-x="1845" d="M131 852q0 46 21.5 117.5t48.5 107.5q80 91 532 234q133 43 305 73.5t299 30.5q61 0 106 -17t69.5 -46.5t35.5 -63.5t11 -74q0 -42 -16.5 -85.5t-49 -88t-57.5 -73.5t-65 -72q-12 -12 -17 -18l-232 -246l316 37l370 465q111 147 154 147q35 0 35 -47q0 -53 -29 -106 t-139 -187l-221 -272q71 -2 100 -3t84 -13t94 -36q-149 -118 -246 -274q-70 16 -149 16q-29 0 -59 -2q-4 -6 -38 -58.5t-51.5 -89t-17.5 -63.5q0 -17 3.5 -37t10.5 -47t9 -38q-5 1 -10 1q-34 0 -106 -36q-68 -35 -97 -35q-6 0 -11 2q-40 13 -40 69q0 15 3 33q18 109 119 299 l-377 -49l-213 -250q-4 -5 -17 -24.5t-22 -32t-23 -28t-28 -23.5t-28 -8q-35 0 -68 27t-33 61q0 33 83.5 136.5t90.5 117.5q-33 -3 -60 -3q-62 0 -98 14q-51 20 -51 73q0 40 38.5 97.5t76.5 57.5q7 0 23 -7t24 -7q6 0 13 2t26.5 7.5t49.5 13t95.5 21.5t151.5 30 q136 133 406 440q86 92 86 141q0 25 -23 35t-49 10q-83 0 -268.5 -56.5t-433.5 -158.5q28 -12 28 -30q0 -34 -51 -50q-57 -20 -92 -34t-50.5 -21t-59.5 -30.5t-79 -41.5q-58 -28 -81 -28q-32 0 -47 29.5t-15 64.5z" />
<glyph unicode="I" horiz-adv-x="1009" d="M206 976q90 124 214 220.5t268 159.5t260 63q99 0 151 -64.5t52 -164.5q0 -75 -37.5 -186.5t-91.5 -220.5t-126 -232.5t-128.5 -211t-112.5 -167.5q6 -16 6 -35q0 -27 -14 -61q-24 -56 -65.5 -96.5t-73.5 -42.5h-7q-34 0 -70 28q-40 31 -40 68q0 30 35 80 q253 362 399 634.5t146 356.5q0 30 -14 57t-42 27q-94 -12 -277.5 -147t-260.5 -279l51 10q69 12 78 12q7 0 12.5 -6t5.5 -14q0 -11 -7.5 -22.5t-14.5 -17.5t-22 -17t-17 -13q-2 -1 -25 -19t-39 -29t-38.5 -26.5t-40.5 -23.5t-29 -8q-35 0 -112 56q-73 53 -73 91 q0 102 100 241z" />
<glyph unicode="J" horiz-adv-x="1114" d="M-68 -414q0 119 146.5 277.5t480.5 355.5l293 492q157 265 192 528q-227 -77 -402 -288t-220 -451q133 82 139 82q8 0 13.5 -5t5.5 -12q0 -9 -14 -28t-29 -35.5t-35 -37.5t-23 -24t-18.5 -20.5t-22 -24.5t-22.5 -24.5t-26 -26t-26 -23t-29 -22t-28 -16t-29 -12t-28 -3.5 q-22 0 -38 11t-24 26t-12.5 39t-5 39.5t-0.5 38.5q0 96 43 223.5t100 233.5q61 116 148 211.5t172.5 154.5t174 100t155.5 57.5t114 16.5q53 0 100.5 -47t47.5 -84q0 -55 -15.5 -120t-57.5 -172.5t-130 -274.5t-221 -391l4 -4l237 104l27 -65l-362 -172l-416 -482 q-38 -44 -78.5 -86t-102.5 -88.5t-98 -46.5q-35 0 -57.5 30.5t-22.5 65.5z" />
<glyph unicode="K" horiz-adv-x="1720" d="M145 891q0 40 52 192q5 15 10 27t9 20.5t11 17.5l10.5 13.5t14 13.5t15 12.5t20 15t22.5 16.5l113 84q45 30 63 30q21 0 21 -22q0 -8 -0.5 -10t-9.5 -13t-27 -26.5t-57 -49.5l4 -4q13 5 110.5 44t176.5 67.5t204.5 58t233.5 35.5q9 1 17 1q24 0 36 -8q16 -10 43 -42 q59 -74 59 -115q0 -11 -3 -22t-10 -24t-11 -20t-14.5 -23t-12.5 -19l-104 -152l4 -4l653 309q108 47 123 47q39 0 39 -38q0 -9 -13.5 -35.5t-39.5 -60t-57.5 -63t-73.5 -44.5q-24 -9 -47 -9q-17 0 -33 5l-752 -375q-47 -32 -47 -76q0 -12 6 -23t18.5 -21t22 -16t26.5 -14.5 t21 -11.5l518 -301q42 -24 69.5 -43t58 -48t46 -64.5t15.5 -77.5q0 -35 -11.5 -68t-39.5 -33t-103 45l-809 445l-164 -197q1 -70 -91.5 -153.5t-157.5 -83.5q-22 0 -39 11.5t-17 33.5q0 38 43 92l305 393q-13 19 -18.5 28t-10.5 24.5t-5 33.5q0 55 35 92t94 68l217 112 l198 312q-154 -37 -278.5 -80.5t-206.5 -80.5t-252 -121q-40 -20 -61 -30q-80 -39 -117 -39q-29 0 -46.5 16.5t-17.5 45.5z" />
<glyph unicode="L" horiz-adv-x="1433" d="M-115 33q0 13 9.5 34t27.5 47.5t31 44.5t34.5 46t24.5 31q28 38 43 48q10 6 21 9q47 11 137.5 21.5t126.5 17.5l596 708q32 38 92.5 99.5t134.5 129.5t146 116.5t110 48.5q49 0 76 -42t27 -92q0 -46 -29.5 -118t-61 -128t-81 -137t-62.5 -104q37 -5 37 -29 q0 -39 -115 -118q-4 -3 -27.5 -20t-40 -29t-40 -27t-41.5 -23t-29 -8q-47 0 -47 62q0 54 28 123t74 138.5t87 122t86 103.5q8 9 11.5 18t1.5 15t-9 6q-43 0 -342 -342l-410 -469q520 -101 823 -174l-108 -109q-67 -67 -93 -83q-38 -24 -101 -24q-18 0 -38 2q-66 7 -293 54 q-267 58 -491 58q-28 0 -55 -1l-45 -20q-14 -5 -48 -19t-61.5 -22t-52.5 -8q-64 0 -64 43z" />
<glyph unicode="M" horiz-adv-x="2340" d="M92 920q3 17 11 63.5t12 66t10 49t10.5 43.5t9.5 19q16 22 33 36q31 26 156 114q35 28 51 28q8 0 16.5 -6t8.5 -14q0 -24 -109 -119l4 -4l232 107q1 0 59.5 26.5t116.5 51t122 45.5q61 20 87 20h2q12 0 21.5 -3.5t15.5 -6.5t12.5 -11t9 -12t9.5 -16.5t9 -16.5l50 -86 q24 -46 24 -77q0 -40 -61.5 -191.5t-65.5 -165.5l4 -4l326 315q87 82 183 154.5t151 73.5q26 1 58.5 -11.5t61.5 -47t29 -83.5q0 -43 -21.5 -102.5t-64.5 -135t-73 -124.5t-84.5 -129.5t-61.5 -91.5l4 -4q87 75 235 207t275 242t246 204q1 1 21 19t28.5 24t25 14.5t29.5 8.5 q38 0 90 -70.5t52 -106.5q0 -10 -5.5 -23.5t-11.5 -24.5t-18 -28t-18.5 -25t-20 -24.5t-14.5 -17.5l-318 -387q-235 -288 -235 -465q0 -36 18.5 -68t52.5 -32q50 0 177 88t317 272l8 -78q-18 -51 -100.5 -135.5t-184 -162t-209.5 -134.5t-171 -57q-93 0 -137 73t-44 175 q0 45 12.5 96t29.5 95.5t49.5 102.5t56 96.5t67 99t65 89t67 87t57.5 73.5l-4 4q-107 -91 -139 -118t-109.5 -95t-107.5 -98l-90.5 -90.5t-104 -111.5t-103.5 -122.5t-129 -159.5q-23 -29 -50 -59t-67 -63t-63 -33q-37 0 -63 41t-35.5 85.5t-9.5 80.5q0 26 15.5 59.5 t28 51.5t37.5 50l140 183q137 179 206 284.5t126 214.5q17 32 21.5 52.5t-0.5 28.5t-17 8q-26 0 -64 -43l-491 -533l-308 -414q-2 -3 -13.5 -18.5t-16 -21.5t-16 -20t-18.5 -20.5t-19 -17t-21.5 -15t-22 -8.5t-24.5 -4q-21 0 -40 13t-32 30.5t-27 46.5t-21 48.5t-17 50 t-13 37.5l428 540q171 305 171 392q0 34 -27 34q-16 0 -64 -24q-144 -67 -257.5 -123.5t-166.5 -85.5t-90.5 -50.5t-53 -28t-28.5 -9t-41 -2.5q-26 0 -41 20q-10 14 -10 35q0 10 2 21z" />
<glyph unicode="N" horiz-adv-x="1712" d="M98 848q0 70 37 147t92 139.5t114 114.5t106.5 80.5t66.5 28.5q8 0 15.5 -5t7.5 -12q0 -3 -5.5 -13t-33 -42.5t-72.5 -75.5l4 -4q73 41 101.5 56t109 55t130 59t115 36.5t113.5 17.5q57 0 96 -30q35 -28 35 -75v-10q-8 -111 -67.5 -235.5t-258.5 -475.5q-20 -35 -30 -53 l4 -4q182 219 321.5 375.5t203.5 219t94 83.5q12 8 45.5 31.5t61 42t59.5 39.5t57.5 32.5t38.5 11.5q19 0 58.5 -27t74.5 -74.5t35 -92.5q0 -44 -45.5 -124.5t-108.5 -167t-152 -225t-153 -265.5q-63 -127 -63 -168q0 -84 53 -84q54 0 198.5 134t210.5 216q2 -24 5.5 -53.5 t3.5 -38.5q0 -18 -23 -47q-105 -135 -204 -236t-174 -154t-129.5 -77.5t-90.5 -24.5q-71 0 -105 52t-34 126q0 137 110 340l349 641l-5 4q-326 -310 -487 -493q-26 -31 -91 -116t-169.5 -225t-124.5 -167l-18 -25.5t-21 -20.5t-27 -12q-36 0 -98.5 47.5t-62.5 81.5 q0 13 20 46q97 149 287 501t190 426q0 22 -6.5 32.5t-25.5 10.5q-55 0 -223.5 -87.5t-415.5 -250.5q-35 -26 -62 -26q-37 0 -37 90z" />
<glyph unicode="O" horiz-adv-x="1308" d="M72 408q-1 12 -1 24q0 96 43 200q48 116 132 219.5t195 200.5t229 170t237 122t217 63q7 1 14 1q28 0 58 -16q38 -20 64.5 -49.5t44.5 -58t18 -41.5q0 -14 -9 -26t-27 -21t-28 -13t-30 -10q-4 -1 -6 -2q-25 -9 -90 -45l2 -2q46 13 84 13q59 0 100 -31q60 -48 63 -162v-10 q0 -94 -34 -202q-36 -112 -101.5 -217.5t-158 -202t-196.5 -168.5q-102 -71 -222 -113q-117 -41 -229 -41h-5q-51 1 -98.5 13.5t-94.5 43.5t-82 77t-59.5 119t-29.5 165zM279 272q0 -59 26.5 -96t81.5 -37q82 0 196 50.5t183 109.5q199 169 315 342.5t121 290.5v6 q0 36 -20 64q-22 30 -60 30q-129 0 -288.5 -100t-235.5 -215q-1 -1 -5 -7t-6.5 -8.5t-7 -8.5t-8 -9.5t-8.5 -8t-9.5 -7t-9 -4.5t-9.5 -2q-6 0 -10 2t-7 6.5t-5 8t-3.5 10.5t-2 10.5t-1 10.5t-0.5 9q-98 -98 -162.5 -214t-64.5 -233z" />
<glyph unicode="P" horiz-adv-x="1519" d="M94 -25q0 31 26 92t51 106t69 119t49 83q-43 28 -67.5 58t-24.5 73q0 24 12.5 46.5t38 41t50 33t62.5 28t61 21t59 18t44 13.5l326 430q-122 -2 -251.5 -24t-213.5 -47t-153.5 -46t-86.5 -21q-32 0 -32 21q0 46 151 252q17 24 46.5 41.5t50 24.5t59.5 18q248 71 551 71 q186 0 315 -28.5t201 -85.5t102.5 -130t30.5 -173q0 -129 -60.5 -244.5t-168.5 -201t-256.5 -146t-325.5 -78.5q-87 -9 -180 -10q-95 0 -195 10l-84 -139q39 -9 39 -37q0 -25 -92 -150q-8 -11 -12 -16q-20 -27 -33 -43t-39 -34.5t-49 -18.5q-70 0 -70 73zM616 582 q85 -22 172 -22q19 0 39 1q115 7 222.5 42.5t184.5 87t134.5 109.5t83.5 112q20 43 20 76q0 9 -2 18q-8 43 -72.5 75t-153.5 46.5t-158.5 21t-116.5 6.5q-1 -40 -11 -65.5t-34 -59.5l-215 -297q25 0 71 6q35 5 56 5q8 0 12 -1q20 -2 20 -20t-43.5 -31t-97 -23.5t-65.5 -19.5 z" />
<glyph unicode="Q" horiz-adv-x="1398" d="M39 6q0 79 41.5 169t91.5 124q17 12 41 17t43 4.5t58.5 -2t62.5 -1.5q186 98 346 205t266.5 198t182.5 175t110.5 144t34.5 96q0 45 -86 45q-46 0 -159.5 -32.5t-272 -103.5t-275.5 -155v-4q23 0 47 0.5t40 1.5t32.5 1.5t26.5 0.5t19.5 -1t15 -3t9.5 -6.5t5.5 -10 t1.5 -14.5q0 -26 -41 -35q-161 -29 -324 -114q-30 -14 -49 -14q-18 0 -27 12q-18 25 -18 149q-3 39 -3 70q0 16 1 30q2 43 21 68q53 70 233 163t390.5 160.5t338.5 67.5q109 0 181.5 -73t72.5 -185q0 -48 -19 -100t-47 -98.5t-76.5 -101t-92 -97t-109.5 -95.5t-112.5 -88.5 t-118.5 -84.5t-110 -74t-103.5 -67t-83.5 -54q280 -56 391 -74t178 -18q36 0 103.5 12.5t78.5 13.5q-43 -139 -112 -258q-23 -40 -98 -45q-12 -1 -27 -1q-72 0 -193 20l-684 106q-5 -3 -37 -25.5t-47.5 -31.5t-42 -20t-47.5 -11q-25 0 -37 10t-12 35z" />
<glyph unicode="R" horiz-adv-x="1648" d="M96 -55q0 42 35 100l191 313q-37 9 -70.5 29t-28.5 47q14 85 97.5 146t218.5 65l303 438q-97 -16 -154.5 -27t-139.5 -32t-147 -47v-4q19 -2 39.5 -3.5t34 -2.5t27.5 -2t23 -1.5t17.5 -2t13 -3.5t8.5 -4.5t5.5 -6.5t1.5 -9q0 -11 -14 -17t-25 -6l-159 -16 q-18 -2 -58 -7.5t-73.5 -9t-59.5 -3.5q-29 0 -51 11.5t-22 37.5q0 47 35 126.5t69 121.5q73 87 359 155t593 68q49 0 92.5 -1.5t105.5 -8.5t113 -18t104.5 -32.5t89.5 -50t59.5 -72.5t23.5 -98q0 -80 -43.5 -179.5t-103.5 -147.5q-29 -23 -53 -40t-58 -33t-60 -26.5 t-77.5 -24t-90 -22t-119.5 -24.5t-144 -27t-184.5 -33t-221.5 -41v-4l553 -176q72 -23 129.5 -44.5t93.5 -38.5t60.5 -30.5t38 -26t19 -18.5t9.5 -15l4 -9q19 -37 27 -90q3 -20 3 -39q0 -29 -7 -55q-12 -42 -45 -42q-24 0 -73 18t-107.5 43.5t-73.5 31.5l-758 280l-176 -256 q4 -11 4 -22q0 -38 -47 -76q-60 -49 -109 -49q-20 0 -33.5 11.5t-13.5 31.5zM735 692l510 133q52 14 130.5 49t153.5 90t75 101q0 28 -60 43.5t-118 17.5q-26 1 -47 2q-25 0 -42 -2l-379 -26q0 -13 -1.5 -26.5t-3 -23t-7.5 -23t-8.5 -20.5t-11.5 -22t-11.5 -19t-14 -21.5 t-13.5 -20.5z" />
<glyph unicode="S" horiz-adv-x="1458" d="M12 88q0 30 38.5 92.5t66.5 89.5q18 15 85 37.5t91 22.5q16 0 16 -15q0 -19 -35 -39q-12 -8 -34 -30v-4q67 -3 130 -3q80 1 152 5q132 8 223.5 23.5t167.5 38t122.5 45.5t78.5 45.5t44.5 38.5t12.5 24q0 98 -641 199l-24 4q-44 7 -76.5 17t-65 28.5t-50 50.5t-17.5 76 q0 54 20.5 143t44.5 129q25 41 103.5 91t191.5 97t271 79t317 32q119 0 258 -29q34 -7 43.5 -20.5t9.5 -46.5q0 -57 -9 -94t-32.5 -63t-51.5 -41.5t-79 -35.5q-64 -24 -93 -40t-91 -60q-37 -21 -51 -21q-33 0 -33 31q0 4 13 21.5t50 52.5t87 69l-4 5q-149 -5 -280 -29 t-215.5 -55.5t-146 -66.5t-88.5 -62t-28 -43q0 -17 7 -24q36 -33 413 -124q58 -13 125 -29q148 -35 225.5 -106.5t77.5 -151.5q0 -84 -41 -154.5t-107 -118t-157 -84.5t-183 -58.5t-193.5 -35t-179.5 -18t-149 -4.5q-330 0 -330 119z" />
<glyph unicode="T" horiz-adv-x="1386" d="M119 930q0 14 18 119q2 11 6 32q9 50 14.5 71t21 48t41.5 44.5t71 37.5q297 135 766 135q196 0 309 -26q37 -9 60.5 -20.5t39.5 -35.5t23 -41.5t21.5 -62.5t25.5 -74q3 -20 3 -25q0 -9 -5 -22q-6 -15 -11.5 -26t-15 -26.5t-16.5 -26t-16.5 -23.5t-14.5 -21l-481 -729 l4 -4q15 8 31 0.5t16 -29.5q0 -38 -86 -145q0 -1 -25.5 -34t-38 -47.5t-36.5 -39.5t-44 -36t-38 -11q-42 0 -76.5 23t-34.5 63q0 48 26 118t79 158t98 158t118.5 168.5t102.5 136.5t86 111l205 262q-556 -9 -1036 -158v-4q4 -1 27.5 -4.5t43.5 -8t43 -11t36.5 -16 t13.5 -21.5q0 -19 -21 -21h-11q-20 0 -56 5q-41 6 -68 6h-8l-119 -3q-23 0 -35 1t-27.5 6t-22.5 17t-7 32z" />
<glyph unicode="U" horiz-adv-x="1789" d="M98 821q9 55 35.5 116t75.5 126.5t112.5 121t154.5 98t194 58.5q35 5 203.5 44.5t236.5 39.5q43 0 72.5 -24t41.5 -61t12 -78.5t-11 -77.5q-11 -35 -30 -69t-33 -53t-49 -63t-50 -63q-95 -100 -283 -331.5t-188 -276.5q0 -37 41 -37q54 0 250 162.5t295 261.5 q85 84 176.5 174.5t143 142.5t106.5 106t84 81t57.5 50.5t44.5 31.5t29 8q40 0 62 -44t22 -87q2 -5 2 -11q0 -25 -28 -69q-34 -54 -183 -261q-109 -151 -181 -253q-74 -104 -118.5 -187.5t-55 -119t-10.5 -56.5q0 -35 22.5 -58.5t55.5 -23.5q25 0 63 16t71 36t81.5 55.5 t74.5 56.5t71 58t51 42q10 -58 10 -67q0 -22 -66.5 -84t-156 -127t-192.5 -115.5t-165 -50.5q-72 0 -117 45t-45 117q0 79 27 146t80 157l168 285l-4 4q-741 -721 -863 -721h-6q-95 17 -143.5 71.5t-48.5 139.5q0 37 21 87.5t43 88t69 98.5t63.5 80t61.5 72q72 84 142.5 164 t110 123t72 79.5t45 54.5t11.5 27q0 9 -6 15t-15 6q-5 0 -17 -4.5t-26 -11t-16 -7.5l-66 -27.5t-55.5 -23.5t-47 -21.5t-72.5 -34.5t-99 -48t-156 -76q-130 -66 -208 -66q-30 0 -44 8q-11 7 -11 24q0 5 1 11z" />
<glyph unicode="V" horiz-adv-x="1431" d="M104 733q0 75 26.5 144.5t78.5 117.5q90 82 428.5 249.5t443.5 170.5h1q48 1 92 -63t45 -97q0 -36 -78 -155q-432 -687 -441 -826q-1 -10 -1 -20q0 -34 11 -66q14 -40 44 -32q21 7 40 19t64 57t102 119.5t153.5 216t219.5 335.5q-2 12 -2 25q1 54 37 126q46 90 106 151 q51 52 81 52q5 0 10 -2q29 -10 37 -46q2 -9 2 -21q0 -34 -17 -91q-22 -76 -76 -182t-161.5 -268.5t-257.5 -359.5q-5 -6 -34.5 -45.5t-48.5 -63.5t-53.5 -66.5t-61.5 -69.5t-58.5 -55.5t-59.5 -42.5t-51 -14q-31 0 -71.5 23t-76.5 60t-60 91q-23 52 -23 105q0 39 14 93 q13 50 51.5 148t130 267.5t228.5 396.5l-5 4q-123 -59 -190.5 -93t-166.5 -96t-173 -126l4 -4l115 6q2 0 14.5 1t22 0.5t21 -1.5t18 -6.5t6.5 -14.5t-7.5 -16t-20 -11t-23.5 -6.5t-23.5 -4.5t-15.5 -3q-81 -16 -160.5 -46t-125.5 -51t-58 -21q-25 0 -35.5 37.5t-10.5 70.5z " />
<glyph unicode="W" horiz-adv-x="2002" d="M107 923q-1 27 13 77q14 52 44 118q7 16 15.5 30t16 23t20 20.5t20 17.5t25 19.5t26.5 20.5l141 111q22 22 45 22q5 0 9.5 -3t4 -13t-9.5 -25l-57 -65l4 -4q13 5 96 35t112 38.5t93.5 27t116 25t104.5 7.5q39 0 62.5 -2.5t53 -15t48.5 -37.5q24 -33 44 -99t20 -108 q0 -26 -5.5 -48.5t-36 -81t-87 -137t-168.5 -217.5t-271 -323q-26 -31 -26 -50q0 -18 24 -26h2q18 0 118 85q106 91 310.5 297t429.5 462q8 8 40 48.5t56 66.5t63 50.5t75 24.5q38 0 64 -49.5t26 -83.5q0 -26 -70 -127q-121 -169 -288 -443t-166 -353q-2 -14 8 -24.5 t20 -6.5q69 32 156 103.5t179 171t183.5 235t157.5 278.5q-10 31 -10 76q0 49 63.5 130t89.5 81q27 0 41 -39q13 -34 13 -62v-7q-4 -109 -52 -243.5t-122 -262t-167 -251.5t-185.5 -218.5t-181 -156.5t-150.5 -71q-6 -1 -13 -1q-33 0 -76 22q-52 26 -93.5 76t-41.5 106 q0 44 15 109t27.5 103.5t43 122t33.5 93.5l-4 4l-287 -309q-167 -180 -263.5 -256t-164.5 -76q-39 0 -84 47.5t-73 106.5q-23 48 -22 81q0 7 1 13q0 2 3 20.5t6 26t18 37.5t37.5 60t67.5 89t105.5 129t152.5 174.5t208 231.5q3 4 19 21t23 26t14.5 24.5t7.5 28.5 q0 27 -21 39.5t-51 12.5q-80 0 -293 -86.5t-311 -145.5q-79 -49 -137 -49q-9 0 -18 4q-10 6 -19 22q-10 18 -10 45z" />
<glyph unicode="X" horiz-adv-x="1409" d="M94 858q0 41 50.5 145.5t84.5 133.5q117 102 367 183t416 81q69 0 102 -25q34 -26 37 -70q1 -17 1 -35q0 -32 -3 -71l-25 -254l334 314q2 1 15.5 13.5t20.5 18t19.5 14.5t23 13t19.5 4q37 0 37 -43q-1 -60 -59 -144q-54 -78 -108 -78q-5 0 -9 1l-309 -297l-41 -477 q0 -6 -2.5 -26t-2.5 -28.5t1.5 -23.5t7 -22t17 -13t28.5 -6q33 0 74.5 20.5t102.5 63t65 45.5l37 -53q-46 -59 -122 -127t-169.5 -124.5t-157.5 -56.5q-43 0 -70 26.5t-33.5 65.5t-8.5 83q-1 17 -1 33q0 25 2 47q1 11 1 16l16 311l-389 -366q-211 -199 -275 -199 q-26 0 -40.5 16t-14.5 43q0 58 60 133t139.5 129.5t140.5 67.5l393 373l21 463q-33 -11 -113 -37.5t-123.5 -42t-108.5 -40t-120.5 -49.5t-106.5 -53v-4q17 -1 35 -2t30.5 -1.5t24.5 -1t20 -0.5t15.5 -1t11.5 -2.5t7 -3.5t4.5 -5t1.5 -7q0 -7 -7.5 -12.5t-30 -13t-49.5 -15 t-81 -23t-109 -33.5q-14 -5 -28 -7t-30 -1.5t-26 10t-10 27.5z" />
<glyph unicode="Y" horiz-adv-x="1519" d="M98 766q-1 4 -1 10q0 23 14 72l30 110q16 55 43 84.5t84 65.5q165 101 408.5 206t374.5 105q60 0 101.5 -27.5t41.5 -84.5q0 -19 -8 -43.5t-25 -54.5t-32 -55t-41 -60t-39.5 -53t-39.5 -51t-30 -38q-62 -79 -123.5 -156t-97.5 -121.5t-70.5 -88t-51.5 -66t-31 -44.5 t-19 -35.5t-6 -26.5q-1 -15 11.5 -24t39 -3.5t57.5 31.5q87 73 159 127.5t168 139.5t394 357q3 2 22.5 20.5t32 29t31 21.5t29.5 11q36 0 66 -43.5t30 -79.5q0 -17 -10.5 -38.5t-41.5 -65.5t-68.5 -94t-112.5 -152.5t-152 -212.5q-182 -259 -217 -318q-37 -63 -37 -87 q0 -14 12 -15q8 -1 15.5 2t25 14t41.5 26t76 44t117 62q40 20 73 32.5t55.5 16.5t38 2.5t22.5 -8t7 -16.5q0 -22 -48 -66.5t-77 -60.5q-120 -90 -266.5 -215.5t-214.5 -206.5q-68 -78 -103 -104q-46 -34 -83 -34q-41 0 -65.5 29t-24.5 72q0 72 79 225t192.5 322t211.5 304.5 t164 217.5l-4 4l-543 -469q-39 -34 -60.5 -51.5t-67.5 -52t-84 -51.5t-67 -17q-54 0 -102 43q-40 37 -40 78q0 8 1 16l2 18q3 18 5 25.5t12 34t24 50.5t42 68t64 93t91.5 119.5t124.5 152.5q190 229 227 281q43 61 43 88q1 9 -7 14.5t-20 7.5q-187 -93 -424.5 -222 t-246.5 -134q-11 -8 -32.5 -16t-33.5 -8q-30 0 -35 18z" />
<glyph unicode="Z" horiz-adv-x="1318" d="M111 -336q0 38 33.5 94t106 130t173.5 152.5t250.5 166t322.5 164.5q0 21 -7.5 42t-28.5 40t-53 27q-14 3 -34 3q-24 1 -55 -5q-56 -10 -127 -42l-213 -94q-62 -27 -105.5 -49t-55.5 -30t-21.5 -11.5t-24.5 -3.5q-32 0 -32 28q0 5 5.5 26t18.5 60t29 80q1 4 4.5 13.5 t4.5 12.5t4.5 11t5.5 11t5.5 9t7.5 10t9.5 9t11.5 10q50 38 169.5 98.5t235 113.5t126.5 59q209 115 266 156.5t57 91.5q0 24 -24.5 39.5t-49.5 15.5q-149 0 -362.5 -92t-640.5 -338q3 89 11 149.5t26.5 119.5t51 103.5t83.5 88t125 86.5q133 76 334.5 133t351.5 57 q326 0 326 -246q0 -66 -25.5 -123.5t-62 -97.5t-95.5 -80.5t-107 -65.5t-115.5 -59.5t-104.5 -56.5q124 -23 185 -74t77 -166q69 23 105.5 26t40.5 -3t3 -17v-2q0 -15 -7 -24.5t-39.5 -25.5t-102.5 -42q-51 -271 -336 -522q-98 -88 -288.5 -190.5t-276.5 -102.5 q-40 0 -106 44.5t-66 82.5zM338 -262q0 -8 8.5 -14.5t15.5 -6.5q48 0 139 52.5t184.5 129t175 173t108.5 174.5q-127 -63 -249.5 -146.5t-202.5 -156t-129.5 -129t-49.5 -76.5z" />
<glyph unicode="[" horiz-adv-x="778" d="M113 -268l444 1714h598l-55 -180h-328l-350 -1354h354l-57 -180h-606z" />
<glyph unicode="\" horiz-adv-x="684" d="M289 1378h139l156 -1458h-142z" />
<glyph unicode="]" horiz-adv-x="778" d="M-98 -268l55 180h328l350 1354h-354l57 180h606l-444 -1714h-598z" />
<glyph unicode="^" horiz-adv-x="1323" d="M342 489l385 814h125l385 -814h-139l-312 685l-311 -685h-133z" />
<glyph unicode="_" horiz-adv-x="1024" d="M0 -154h1024v-102h-1024v102z" />
<glyph unicode="`" horiz-adv-x="716" d="M92 983q1 7 1.5 21t1 21.5t3.5 17.5t7.5 15t13 9t20.5 4q24 0 64 -12l121 -37q204 -60 247 -88q21 -14 39.5 -38t18.5 -46q0 -19 -29 -19q-26 0 -68 17q-67 25 -194 43q-94 12 -174 8q-61 -4 -69 7t-3 77z" />
<glyph unicode="a" horiz-adv-x="997" d="M-63 244v5q0 71 53 147q55 78 143.5 142t191.5 116t202.5 82t170.5 32h3q61 0 95 -34q36 -36 35.5 -64t-71.5 -52q59 -24 59 -83q0 -27 -44.5 -83.5t-89 -119t-44.5 -103.5q0 -25 18.5 -37t45.5 -12q39 0 84 23t121 79t85 62l17 -76q-77 -88 -235.5 -203.5t-227.5 -115.5 q-49 0 -73.5 30.5t-24.5 77.5q0 77 75 230l-4 4l-188 -152q-172 -137 -217 -137q-28 0 -70 37.5t-75 96t-35 108.5zM86 193q2 -9 4.5 -17t12.5 -18q8 -7 18 -7q3 0 6 1q41 8 73 26q125 70 437 385l-4 4q-141 -43 -243.5 -87t-160 -80.5t-91 -75.5t-43 -68t-9.5 -63z" />
<glyph unicode="b" horiz-adv-x="819" d="M0 279q0 332 283 669q124 149 316 299t257 150q29 0 44 -22t15 -54q0 -53 -33.5 -124.5t-80 -137t-112 -140.5t-111.5 -122.5t-97 -96.5l-319 -313q-12 -48 -12 -88q0 -15 2 -30q6 -52 34 -82q24 -26 55 -26q5 0 11 1q19 3 35 9.5t33 22t23.5 21t25.5 29t20 24.5 q-29 49 -29 80q0 58 45.5 134t113.5 131t126 55q33 0 47.5 -27t14.5 -63q0 -39 -14.5 -80t-47 -102.5t-37.5 -73.5q16 -3 32 -3q24 1 48 7q41 10 68.5 26t68.5 45l21 -67q-66 -69 -145.5 -99t-182.5 -32q-208 -217 -366 -217q-38 0 -66.5 22t-44.5 54t-25.5 75t-12.5 77 t-3 69zM236 604l4 -4q122 121 214 222t139 156.5t84.5 113t45 72t25.5 53.5l-5 4q-340 -288 -507 -617z" />
<glyph unicode="c" horiz-adv-x="735" d="M-6 272q0 84 22.5 143t60 98t111.5 95q82 63 203.5 121.5t200.5 58.5q92 0 92 -94q0 -53 -43 -118.5t-94.5 -108.5t-79.5 -43q-32 0 -50 28t-20 62l-172 -129q-41 -30 -61.5 -56t-20.5 -65q0 -41 41.5 -75.5t114.5 -34.5q55 0 114.5 20.5t131 66.5t103.5 69t104 79 l24 -80q-54 -57 -113 -109.5t-133.5 -107t-154 -87t-148.5 -32.5q-76 0 -130 44t-78.5 110t-24.5 145z" />
<glyph unicode="d" horiz-adv-x="1026" d="M-14 291q0 69 43.5 139t111 124t146.5 98t153 68.5t127 27.5q12 1 22 -1.5t20 -10t14 -11t15.5 -18t14.5 -17.5q13 22 52 99t76 144t83.5 139.5t95.5 115.5t91 43q29 0 47 -24t18 -54q0 -61 -88 -197l-209 -323q-5 -8 -29.5 -45.5t-34 -52.5t-30 -50t-29.5 -57t-21 -52.5 t-17 -58.5t-5 -55q0 -102 47 -102q31 0 94 40.5t138 99t92 69.5l14 -68q-291 -321 -456 -321q-54 0 -81.5 45t-27.5 102q0 54 16 156q-14 -12 -71 -64.5t-100 -90t-97 -71.5t-86 -34q-42 0 -78.5 53t-53.5 113.5t-17 101.5zM166 248v-5q0 -11 6 -20q8 -11 25 -14h1 q12 -1 66 37q56 40 123 95t126.5 120.5t70.5 107.5q-108 -35 -181 -66t-118 -58t-70.5 -59.5t-35 -62.5t-13.5 -75z" />
<glyph unicode="e" horiz-adv-x="731" d="M-16 236v11q0 93 46 187q50 100 128.5 174.5t180.5 121.5q100 46 196 46h4q147 0 147 -98q0 -41 -23 -84.5t-75 -94t-153.5 -103.5t-241.5 -99l-5 -45v-10q0 -46 34 -70q38 -26 93 -25q30 0 61.5 7t69 26t61.5 31t68 44.5t57 42t60.5 47t48.5 38.5l19 -78 q-71 -82 -154 -153.5t-193.5 -128t-205.5 -56.5q-105 0 -162.5 79t-60.5 190zM205 397q83 28 157 80q73 51 109 95q35 42 35 62q0 12 -8 19q-5 5 -11 5q-3 0 -6 -1q-80 -21 -158 -92t-118 -168z" />
<glyph unicode="f" horiz-adv-x="634" d="M-176 -266q0 38 7.5 78.5t28.5 94.5t30.5 77t42 90t34.5 71q-30 32 -44.5 57t-14.5 60q0 15 3 28.5t6 23t12.5 19.5t13.5 15.5t18 14.5t18.5 12t22 12.5t21.5 11.5q84 46 139.5 112t109.5 167q34 64 76.5 138.5t112.5 188.5t133.5 187.5t99.5 73.5q49 0 49 -90 q0 -57 -34.5 -146.5t-71.5 -140.5l-383 -535q17 -10 30.5 -23.5t25 -32.5t18 -31.5t17.5 -38.5t15 -35l277 172l22 -76q-159 -144 -264 -195q4 -19 4 -55q0 -25 -2 -57q-5 -70 -39 -142t-84 -130.5t-109.5 -106.5t-117 -77t-102.5 -36q-5 -1 -10 -1q-27 0 -48 23 q-25 27 -38 70t-19 82.5t-6 69.5zM4 -160q-2 -14 -2 -28q0 -72 43 -154q98 65 156 175q47 90 47 181q0 20 -2 41q-16 -1 -31 -1q-67 0 -117 18q-83 -142 -94 -232z" />
<glyph unicode="g" horiz-adv-x="907" d="M-20 -471q0 51 48.5 124.5t122 145t137 126t115.5 91.5l144 281l-4 4q-74 -82 -200.5 -175t-201.5 -93q-41 0 -72 24t-48 62t-25 77t-8 76q0 76 47.5 153t120 135.5t155.5 106t157.5 74.5t123.5 31h9q15 0 32 -2q23 -3 45 -15.5t22 -33.5q0 -39 -67 -84l-234 -127 q-15 -8 -48.5 -25.5t-50.5 -26.5t-45 -26.5t-43 -30.5t-33.5 -33t-27 -39t-13 -44t-1.5 -52q3 -20 33 -20q6 -1 12 -1q44 0 114 32q79 37 134 96l219 242q2 2 7.5 9t8.5 10t8.5 9t9.5 9l10 7.5t11 7t11 4t12 1.5q29 0 53.5 -37t24.5 -67q0 -11 -5.5 -27t-10 -25.5 t-15.5 -30.5t-12 -22l-154 -287l4 -4l312 223l10 -86l-432 -323q-148 -236 -277 -354.5t-198 -118.5q-21 0 -34 14t-13 35z" />
<glyph unicode="h" horiz-adv-x="905" d="M-20 223q0 97 30.5 175.5t93.5 181.5q85 141 203.5 285.5t221.5 244.5t185 163.5t109 63.5q31 0 59.5 -13.5t28.5 -41.5q0 -48 -101 -184.5t-244 -295t-257 -279t-180 -185.5v-80q13 10 86 71t133.5 109t137.5 105t137 90t92 33q36 0 67 -31.5t31 -67.5q0 -7 -4 -17 t-9 -19.5t-14 -23t-16 -22.5t-18.5 -23t-17 -20.5t-16 -18.5t-11.5 -13q-60 -73 -87.5 -111.5t-30.5 -47t-3 -22.5q0 -20 13 -31.5t32 -11.5t47.5 11t63.5 31.5t60.5 37t61.5 41t43 29.5l11 -84q-6 -5 -36 -28t-47 -36t-51 -38t-58 -41.5t-57 -38.5t-59 -36t-54 -27.5 t-51.5 -20t-41.5 -6.5q-44 0 -69 32t-25 76q0 37 13 77t44 89t48 73.5t62 81t48 60.5l-4 4q-117 -81 -217.5 -171.5t-150.5 -149t-89.5 -97.5t-61.5 -39q-25 0 -42.5 24.5t-25 62.5t-10.5 67t-3 53z" />
<glyph unicode="i" horiz-adv-x="569" d="M-27 213q0 89 42 182t101.5 159.5t124.5 109.5t111 43q33 0 61.5 -14t28.5 -44q0 -68 -101 -176.5t-187 -167.5q-4 -20 -4 -38q0 -91 112 -91q38 0 82.5 19.5t74 40.5t76.5 58.5t64 49.5l19 -78q-40 -49 -85 -95t-103.5 -94.5t-121.5 -78t-118 -29.5q-57 0 -99 40.5 t-60 94t-18 109.5zM381 836q0 61 57.5 109t120.5 48q28 0 48 -18t20 -45q0 -64 -50 -123t-114 -59q-36 0 -59 25.5t-23 62.5z" />
<glyph unicode="j" horiz-adv-x="735" d="M-125 -373q0 52 33 114.5t84.5 120t102 103t98.5 80.5l262 508q-60 -17 -209.5 -76.5t-235.5 -75.5q26 63 44.5 124.5t27.5 76.5t40.5 32.5t57.5 27l78 28.5q11 4 65.5 24.5t90.5 33.5t82 25q43 11 69 11h4q90 -4 90 -75q0 -34 -47 -125l-213 -412l4 -4l334 197l13 -91 l-437 -258q-15 -21 -70 -111.5t-101.5 -162.5t-107 -134.5t-102.5 -62.5q-29 0 -43 24.5t-14 57.5zM514 930q0 61 57.5 109t120.5 48q28 0 48 -18t20 -45q0 -64 -50 -123t-114 -59q-36 0 -59 25.5t-23 62.5z" />
<glyph unicode="k" horiz-adv-x="993" d="M-29 256q0 32 7.5 65.5t15 56.5t28.5 61t29.5 52t37 58t34.5 53q103 162 282 342t327 288q144 106 191 105h3q22 -2 36.5 -16.5t14.5 -36.5q0 -49 -119 -192t-259 -284.5t-293.5 -293.5t-182.5 -184l-4 -56q59 54 137.5 119.5t190.5 153.5t210 145.5t146 57.5t77 -48.5 t29 -99.5q0 -45 -22 -88.5t-53.5 -75t-80.5 -65.5t-88 -55.5t-92 -49.5t-77 -43q20 -27 28 -37t25 -25t35.5 -21t44.5 -7h3q81 0 369 230l21 -84q-8 -7 -50.5 -45.5t-67.5 -59.5t-71.5 -60t-80.5 -62t-75.5 -49t-76.5 -38t-63 -12q-37 0 -74 17t-64 39t-58.5 60.5t-48 62.5 t-41.5 64q-5 8 -7 11q-55 -50 -109 -139q-15 -29 -31.5 -45.5t-42.5 -16.5q-25 0 -44 31t-28 75.5t-13.5 81t-4.5 60.5zM360 330q44 -15 78 -45l193 133q2 2 17.5 13t22.5 16t20 17t20 20.5t12.5 20t5.5 21.5q0 8 -9 12.5t-18 4.5q-55 0 -178.5 -79t-163.5 -134z" />
<glyph unicode="l" horiz-adv-x="614" d="M-12 246q0 158 61.5 321t163.5 289q140 174 266 294t174 120q23 0 33 -25q8 -21 8 -42v-9q-5 -66 -16 -118t-42.5 -125t-85 -149.5t-146 -181.5t-222.5 -231q-14 -26 -18 -65q-1 -13 -1 -26q0 -26 5 -50q34 -88 102 -88q126 0 353 205l28 -62q-44 -46 -54.5 -56.5 t-58 -57t-70.5 -64.5t-69 -53t-78 -50t-73.5 -28.5t-77.5 -13.5q-54 0 -91.5 23.5t-56 65t-26.5 84t-8 93.5zM223 582l4 -4q105 98 193 227.5t117 220.5q-72 -35 -155 -156t-159 -288z" />
<glyph unicode="m" horiz-adv-x="1454" d="M-23 236q1 96 60.5 209t140.5 185q73 65 129 65q6 0 12 -1q3 0 17.5 -1.5t21 -2.5t19 -4.5t19 -8t11.5 -12.5t5 -18q0 -7 -2.5 -16t-6.5 -17t-10.5 -19t-11.5 -18t-14 -18t-13.5 -16l-13.5 -15t-10 -12q-11 -13 -53 -56t-60 -69q-5 -6 -18.5 -23t-20.5 -26.5t-13.5 -25.5 t-6.5 -31q0 -4 4.5 -11.5t9.5 -7.5q8 0 41 33q54 56 120.5 120t163 150.5t182.5 142.5t132 56q40 0 62 -26.5t22 -67.5q0 -40 -36 -103t-88.5 -136.5t-65.5 -96.5l4 -4l454 358q73 58 97 58q7 0 16 -12t17.5 -28.5t9.5 -17.5q1 -2 8.5 -14t10.5 -17t8 -15.5t7 -19t2 -16.5 q0 -36 -63 -104q-112 -123 -142 -170t-32 -86q-2 -19 14.5 -37t34.5 -14q29 7 46.5 13.5t84.5 47t186 121.5l13 -96q-3 -2 -34 -26.5t-45 -36t-50 -39t-58 -43.5t-58 -42t-61 -41.5t-57.5 -34.5t-56 -29.5t-46.5 -18t-40 -7.5q-44 0 -74.5 36.5t-30.5 82.5q0 29 9 62.5 t31.5 77.5t34 65t44 73.5t33.5 53.5l-4 4l-326 -299q-3 -2 -29.5 -29t-39 -37.5t-36.5 -29t-44.5 -26t-40.5 -7.5q-37 0 -63 24q-27 25 -27 64q0 44 39 121q40 79 141 233q3 3 7.5 13t4.5 14q0 14 -14 14q-17 0 -80 -63q-219 -233 -317 -355q-49 -57 -89 -57 q-34 0 -60.5 25.5t-40 64.5t-20 75.5t-6.5 68.5z" />
<glyph unicode="n" horiz-adv-x="942" d="M-29 205v10q-1 97 71 225q76 134 171 213q19 16 35 20.5t45 4.5q33 -1 56 -5t34 -7.5t16.5 -10.5t6 -10t0.5 -9v-3q0 -27 -40.5 -79.5t-89 -100.5t-89 -94t-40.5 -62q0 -9 7 -16t16 -7q18 0 41 29q76 97 211.5 209t246.5 182t142 70q17 0 33 -39q23 -59 30 -111 q0 -22 -26 -55.5t-63 -71.5t-73.5 -78t-62.5 -86t-26 -85q0 -14 10.5 -25.5t25.5 -11.5q55 0 177 102l122 103l17 -91q-24 -21 -96 -92.5t-125 -120t-124.5 -92t-123.5 -43.5q-55 0 -85 39t-30 96q0 29 9.5 63.5t20 60t35 65.5t35.5 56.5t41.5 59t34.5 48.5l-4 4 q-169 -125 -315 -314q-75 -95 -117 -122q-26 -17 -45 -17q-32 0 -55.5 20.5t-35.5 53.5t-17.5 64t-6.5 61z" />
<glyph unicode="o" horiz-adv-x="811" d="M-25 281v13q-1 102 45 178q48 82 142 153q82 66 185 106t198 45h8q36 0 68 -17q36 -19 36 -57q0 -14 -8 -25.5t-15.5 -16.5t-23.5 -13q43 -11 58.5 -40.5t15.5 -80.5q0 -19 -2 -37t-7.5 -37t-9.5 -32.5t-13.5 -35.5t-14 -31.5t-17 -35t-16.5 -32.5q12 -2 23 -2q21 1 41 7 q32 10 50.5 24t51 41.5t45.5 37.5l21 -86q-70 -89 -145.5 -127.5t-186.5 -38.5q-150 -153 -316 -153q-83 0 -145 79.5t-68 213.5zM127 215q0 -78 90 -78q32 0 62 13t47.5 27t48.5 42q-25 59 -25 94q0 46 24 105.5t45 96.5t19 38q-11 -6 -43.5 -24.5t-50.5 -29.5t-45.5 -28.5 t-49 -34t-38.5 -33.5q-35 -35 -59.5 -88.5t-24.5 -99.5z" />
<glyph unicode="p" horiz-adv-x="999" d="M-207 -336v6q0 138 127 318q117 165 330 526l-4 4l-324 -309l-8 96l543 584q6 7 27 31t30.5 32.5t28 23t37.5 20t41 5.5q31 0 62.5 -11.5t31.5 -37.5q0 -13 -10.5 -32t-29.5 -41t-35.5 -39.5t-38 -38.5t-26.5 -27q-125 -132 -174 -242l5 -4q100 72 216 135.5t189 63.5 q40 0 63 -27.5t23 -68.5q0 -85 -80 -194.5t-252 -262.5q31 -2 55 -1.5t45.5 1t43 8t38 12.5t41 21t41.5 27.5t49.5 37.5t55.5 45.5t67 57.5l15 -94q-65 -63 -122 -109.5t-128.5 -92t-149.5 -69.5t-157 -24q-66 0 -146 41q-62 -12 -94 -12q-28 0 -82 12l-192 -377 q-16 -32 -41 -59t-51 -27q-32 0 -46 28.5t-14 63.5zM276 231q17 1 34 1q74 0 139 -21l145 172q51 64 51 100q0 29 -22 29q-35 0 -158 -82q-89 -64 -189 -199z" />
<glyph unicode="q" horiz-adv-x="925" d="M-33 240q0 61 21 113t51 89t82 84q111 102 285.5 175t326.5 73h9h9h8t8.5 -0.5t8 -1.5t8.5 -2.5l7 -3.5t7.5 -4.5t6.5 -5.5q8 -8 15 -24.5t7 -26.5q0 -20 -32 -52q22 -7 35.5 -28t13.5 -45q0 -41 -49.5 -113.5t-116 -152.5t-82.5 -107q17 -7 36 -7q34 0 73 22 q61 34 210 151l25 -78l-240 -211q1 -13 1 -26q0 -155 -199 -363q-85 -88 -202 -167t-155 -79q-36 0 -60 48t-24 89q0 19 7.5 40.5t15 34.5t23 36.5t20.5 32.5q58 95 134 198.5t175.5 232t149.5 195.5l-4 4q-18 -15 -90.5 -82.5t-130 -118.5t-127 -96t-109.5 -45 q-49 0 -103.5 66.5t-54.5 155.5zM117 199h9q90 0 238 98q154 103 328 309l-2 2q-266 -71 -444 -192q-71 -48 -97 -91t-32 -126zM246 -350q96 40 200.5 143.5t104.5 183.5q0 15 -4 43q-25 0 -76 5l-131 -183q-69 -97 -94 -192z" />
<glyph unicode="r" horiz-adv-x="712" d="M-111 281q71 58 136 149q-32 3 -44 17t-12 47q0 51 33.5 107t77.5 95.5t86 65.5t61 26q15 0 26 -10t11 -24q0 -26 -14 -58q42 6 104 15.5t90 13.5t61.5 7t48.5 0.5t21 -9.5q44 -56 50 -109q0 -30 -13.5 -55.5t-27.5 -38.5t-45 -39q-160 -138 -160 -233q0 -24 19.5 -41 t43.5 -17q39 0 89.5 31t119 89.5t76.5 64.5l14 -76q-34 -38 -85 -87t-114 -102.5t-126.5 -89.5t-104.5 -36q-62 0 -100.5 47.5t-38.5 109.5q0 25 5.5 51.5t12 47t21 47t24 42.5t30.5 43t30.5 38.5t33.5 40t31 36.5l-4 5l-213 -48q-32 -51 -70.5 -91.5t-93 -88t-81.5 -74.5z " />
<glyph unicode="s" horiz-adv-x="735" d="M-184 217q0 6 1.5 11.5t5.5 12t7 11t9 11t9 9.5l9.5 9.5l7.5 7.5l444 407q3 55 34 94t83 39q44 0 59.5 -15.5t20.5 -59.5q3 -28 21 -107.5t18 -130.5q0 -115 -75.5 -209t-190.5 -164q27 -5 53.5 -4t47 3.5t46 13t41 18t41.5 25t39.5 27.5t42.5 32l123 94l20 -78 q-53 -53 -111 -102t-128 -98q-71 -50 -143 -78q-65 -26 -119 -25h-11q-111 5 -205 66.5t-120 167.5q-27 -27 -46 -27q-14 0 -24 12.5t-10 26.5zM16 309q27 -1 50 -11.5t45 -32.5t33 -35t32 -42q96 59 127 101t35 129q-8 56 -27 168z" />
<glyph unicode="t" horiz-adv-x="598" d="M-113 279q217 166 312 327q-31 0 -57 0.5t-34.5 1t-23 0t-30.5 -2.5t-50 -7l23 37q71 116 100 146q47 51 127 65q43 7 119 10q9 12 29 41.5t30.5 43.5t31 36t37.5 32t42.5 18.5t54.5 8.5q66 0 66 -39q0 -17 -13.5 -40.5t-39.5 -57t-27 -35.5l127 -10q-7 -15 -21 -43 q-36 -75 -54.5 -106t-54.5 -64q-35 -33 -83 -41q-28 -4 -68 -4q-26 0 -57 2q-187 -240 -187 -381q0 -72 62 -72q11 0 22 2t25 7.5t26 11.5t31.5 18t34.5 22t42 29.5t47.5 34t58 41.5t65.5 47l10 -90q-3 -2 -43 -39.5t-52 -48t-52.5 -46t-61.5 -50.5t-59 -43.5t-65 -42 t-60.5 -30t-64 -23t-58.5 -6.5q-60 0 -94.5 37.5t-34.5 99.5q0 89 53 205l-4 4l-104 -84z" />
<glyph unicode="u" horiz-adv-x="978" d="M-33 211q0 139 88 278.5t197 210.5q37 23 90 23q3 0 24 1.5t35.5 1t32.5 -4t26.5 -14t6.5 -27.5q-3 -22 -31.5 -56.5t-50.5 -52.5q-66 -76 -93 -99q-23 -20 -63 -48q-56 -40 -84 -78.5t-28 -97.5q0 -31 16 -31q30 0 104 42t142 103l203 183l40 37q41 38 70 63.5t70 60 t71 53.5t44 19q11 0 18 -5t16 -31.5t13 -75.5q2 -22 -14.5 -49t-30 -40.5t-39.5 -35.5q-67 -60 -139 -156.5t-72 -157.5q0 -45 51 -45q75 0 315 193l13 -88q-8 -8 -59 -58t-78 -75.5t-80 -70.5t-90.5 -69t-83.5 -43.5t-82 -19.5q-55 0 -88 39.5t-33 95.5q0 58 43 172l-4 4 q-15 -13 -88 -90t-132 -120.5t-110 -43.5q-70 0 -113 64.5t-43 138.5z" />
<glyph unicode="v" horiz-adv-x="870" d="M-18 291q0 80 26.5 157.5t66.5 134t85 100t83.5 65.5t61.5 22q15 0 32 -1.5t39.5 -5.5t37 -14.5t14.5 -25.5q0 -61 -96 -180.5t-170 -180.5q-2 -7 -8.5 -27t-11 -33.5t-8 -30.5t-3.5 -29q0 -80 49 -80q27 0 87 42t101 78.5t76 69.5q-1 10 -1 19q-1 52 23 100 q28 56 81 123q24 31 39.5 50t46.5 52t60.5 50.5t54.5 17.5q30 0 45.5 -18t15.5 -50q0 -54 -57.5 -161.5t-112.5 -184.5q30 -26 70 -26q55 0 174 82l14 -87q-62 -71 -122.5 -108t-139.5 -37q-12 0 -23.5 2.5t-23.5 9.5t-19 11t-21.5 15t-19.5 15q-55 -64 -172.5 -154.5 t-171.5 -90.5q-88 0 -145 93.5t-57 215.5z" />
<glyph unicode="w" horiz-adv-x="1300" d="M-20 272q3 106 44 181.5t126 160.5q120 121 168 153q45 30 81 30h4q121 -5 121 -66q0 -36 -40.5 -93.5t-103.5 -118t-112 -103.5t-92 -76q-5 -10 -10.5 -48t-5.5 -69q0 -45 22 -45q21 0 93 58t108 94l291 299q90 112 117 112q22 0 60 -13.5t38 -29.5q0 -25 -47 -102 q-55 -86 -120 -210t-64 -173q0 -18 10 -29.5t28 -11.5q26 0 62.5 27t84 73.5t52.5 51.5q-4 29 -4 54q1 8 1 15q2 31 23.5 73t73.5 109q111 144 174 144q33 0 49.5 -33.5t16.5 -69.5q0 -76 -36.5 -142.5t-102.5 -145.5q4 -2 17 -10.5t17.5 -10.5t15 -5t21.5 -3q8 0 17 2 t19.5 6.5t19 8t21 12t18.5 12t19.5 14t17 13t17.5 13.5l13 11l4 -90q-56 -58 -108.5 -90.5t-116.5 -32.5q-37 0 -60.5 9t-62.5 32q-24 -18 -76.5 -66.5t-95.5 -86.5t-96.5 -69.5t-92.5 -31.5t-73 39q0 1 -6.5 8.5t-7.5 9t-6.5 10t-6.5 13.5t-4.5 16.5t-4.5 22t-2.5 28 t-1.5 36t0.5 43t2.5 53.5q-19 -17 -65.5 -66.5t-82.5 -85.5q-38 -36 -84 -66q-44 -28 -77 -28h-4q-90 4 -154 80q-61 72 -61 184v10z" />
<glyph unicode="x" horiz-adv-x="712" d="M-70 39q0 29 72 121q26 31 48 44.5t61 24.5l108 97l-2 245l-58 -30t-45.5 -23.5t-33 -17.5t-25 -13t-16.5 -7.5t-12 -4t-7 -0.5q-22 3 -22 27q0 20 77 94t165.5 140.5t117.5 66.5q17 0 27 -10.5t12.5 -32t2.5 -32.5t-1 -32l-6 -186l182 166q74 69 117 69q21 0 27 -32 q3 -16 -13 -50.5t-42 -68.5q-24 -34 -60 -56q-28 -18 -54 -17q-7 0 -13 1l-142 -141l-2 -86v-9q0 -87 74 -87q23 0 51 11.5t59.5 34.5t54 40.5t55 46t40.5 35.5l12 -82q-24 -21 -88.5 -85t-113.5 -109t-113.5 -84.5t-112.5 -39.5q-25 0 -43 9t-28 26.5t-16 36t-7.5 45.5 t-1.5 45.5t1 45.5t1 38l-119 -115q-95 -88 -135 -88q-14 0 -23.5 8t-9.5 21z" />
<glyph unicode="y" horiz-adv-x="905" d="M-14 274v7q0 66 33 139q35 77 88 139t110.5 113.5t103.5 80t64 29.5q23 0 55.5 -36t32.5 -58q0 -51 -110.5 -167t-188.5 -177q-36 -50 -39 -119q39 4 78 20.5t79 46t67 52.5t69 62q54 50 116 109t99.5 95t74 70t58.5 50t33 18q23 4 39 -34.5t16 -68.5q0 -55 -84 -180 l-303 -451l4 -4l455 404l16 -76l-616 -678q-3 -3 -15.5 -19t-23 -27.5t-24.5 -25.5t-26.5 -22t-21.5 -8q-28 0 -44.5 48.5t-16.5 86.5q0 30 55 123l275 463l-5 4q-129 -109 -227 -180q-96 -70 -114 -70h-1q-51 4 -104 70.5t-57 170.5z" />
<glyph unicode="z" horiz-adv-x="753" d="M-141 -397q-1 40 14.5 78t47.5 74t57 59t65 55l266 213q-14 60 -39 80t-92 39q-2 1 -19 4.5t-23 6t-16.5 8t-14 13.5t-1.5 19q4 30 43.5 62.5t141 103.5t188.5 143l-4 4l-250 -43l-233 -254l-23 68l144 174q-56 11 -56 55q0 55 86.5 137t137.5 82q27 0 39 -21t12 -50 q69 11 129.5 26t93.5 24t49 9q25 0 45.5 -66t20.5 -96q0 -40 -62 -80l-262 -190q84 -62 107 -162l323 250l6 -88l-327 -285q-13 -94 -57 -181.5t-101.5 -151t-122 -112.5t-122 -75.5t-99.5 -30.5h-9q-34 0 -57 26q-26 30 -26 73zM-39 -393q108 29 217 136t129 214l-235 -184 q-50 -39 -77.5 -77t-33.5 -89z" />
<glyph unicode="{" horiz-adv-x="716" d="M117 -147q7 69 37 143l104 373q27 95 18 146.5t-61 72.5h2v4q68 23 102.5 70t63.5 149l90 330q12 43 19 67t20 58.5t25.5 53t32 43t42 36.5t54.5 25t71 17t89 4.5t110 -5.5v-4q-66 -21 -104.5 -72.5t-65.5 -149.5l-96 -348q-36 -133 -78.5 -192t-116.5 -84h-2v-4 q72 -20 78 -84q6 -40 -31 -168l-108 -377q-28 -98 -19.5 -148t60.5 -77l-2 -4q-131 -8 -201.5 0.5t-97.5 38.5q-35 35 -35 86z" />
<glyph unicode="|" horiz-adv-x="829" d="M467 -512v2052h162v-2052h-162z" />
<glyph unicode="}" horiz-adv-x="716" d="M-66 -262q66 21 104.5 72.5t65.5 148.5l97 348q36 134 78 193t116 84h2v4q-72 20 -78 84q-6 40 31 168l109 377q28 98 19.5 148t-60.5 77l2 4q131 8 201.5 -0.5t97.5 -38.5q35 -35 35 -86q-7 -69 -37 -143l-105 -373q-27 -95 -18 -146.5t61 -72.5h-2v-4 q-68 -22 -102.5 -70t-63.5 -150l-90 -329q-12 -43 -19 -67t-20 -58.5t-25.5 -53t-32 -43t-42 -36.5t-54.5 -25t-71 -17t-89 -4.5t-110 5.5v4z" />
<glyph unicode="~" horiz-adv-x="1226" d="M178 459q47 86 124 138t165 52q27 0 53 -4.5t51.5 -14.5t40.5 -17t41.5 -21.5t34.5 -18.5q5 -3 14 -8q40 -23 60 -33t50 -19t60 -9q59 0 104 34.5t91 108.5l74 -72q-108 -190 -269 -190q-40 0 -80.5 12t-66 24t-88.5 46q-37 21 -59 32.5t-56.5 22t-66.5 10.5 q-61 0 -106.5 -37t-94.5 -106z" />
<glyph unicode="&#xa2;" d="M217 571q0 95 48 189.5t124 165.5q16 15 33 28t39 25t37.5 20.5t43.5 18.5t40 15t45.5 14t42 11.5t46 12t42.5 10.5q11 22 32.5 62t28 53t22.5 40t22.5 34.5t20.5 23t24 19t26 10t33 7.5t39 1q14 0 19.5 -0.5t12 -6t6.5 -17.5q0 -41 -65 -111q-27 -27 -36.5 -41 t-22.5 -49h17h19.5t17.5 -0.5t19.5 -2t17 -4t17.5 -6.5t14 -10q23 -19 36.5 -58t13.5 -73q0 -39 -14.5 -54.5t-54.5 -33.5q-6 -3 -9 -4l-24 -14q-25 -13 -42 -20t-28 -7q-8 0 -14.5 5t-6.5 14q0 20 21 41l-115 -9l-113 -260q14 3 68.5 13.5t91 21t63.5 25.5q44 22 56 22 q28 0 28 -100q0 -37 -13.5 -68t-41.5 -54t-56 -40t-71.5 -31t-72 -22t-74 -18.5t-62.5 -14.5q-20 -95 -20 -238q-11 3 -39.5 8.5t-38 8.5t-28 11.5t-25 18.5t-13 28t-6.5 42q0 33 23 123q-124 10 -184 58.5t-60 166.5zM397 649q-11 -76 133 -71l109 253q-113 -24 -173 -71.5 t-69 -110.5z" />
<glyph unicode="&#xa3;" horiz-adv-x="1228" d="M-260 33q0 24 23 66.5t48.5 76.5t62 80t44.5 57l289 43l149 185q-94 21 -247 -6q26 42 40 61t37 35t51 19.5t74 0.5l127 -8l94 125l431 543q111 140 204 199t146 53q51 -6 86 -48t35 -88q0 -71 -43.5 -166t-120 -218t-92.5 -154q2 -1 7 -2t7.5 -2t6.5 -2.5t6 -3t5 -3.5 t4 -5t2 -6.5t1 -8.5q0 -16 -16.5 -37.5t-45.5 -46.5t-53.5 -43.5t-55.5 -40.5t-36 -26q-3 -2 -19.5 -14t-26 -18.5t-24 -13t-25.5 -6.5q-49 0 -49 78t67 204t134 206q125 155 82 155q-6 0 -13.5 -4t-12 -8t-13.5 -11.5t-10 -8.5q-80 -86 -164 -187.5t-182 -224t-156 -191.5 q33 -4 67.5 -13t69.5 -31.5t35 -51.5q0 -21 -14 -32t-35 -11q-14 0 -45.5 8t-38.5 9l-123 24l-137 -158q128 -8 272.5 -41.5t307.5 -79t268 -65.5q-23 -22 -64.5 -70t-71.5 -80.5t-76 -59.5t-93 -27q-45 0 -123 16q-189 44 -269 61.5t-232.5 38t-275.5 17.5q-9 -4 -47 -23 t-62 -30t-56 -22t-52 -11q-25 0 -44 12t-19 35z" />
<glyph unicode="&#xa5;" horiz-adv-x="1658" d="M86 936q-11 18 12 53l31 76q14 35 46.5 56.5t103.5 49.5q222 89 508.5 181.5t447.5 105.5q73 7 127 -7t57 -48q1 -17 -17.5 -43.5t-55.5 -61t-63 -56t-69.5 -56t-44.5 -35.5q-84 -68 -171 -135.5t-134 -103t-87.5 -68t-56 -50t-15.5 -30.5q0 -9 16 -13.5t48 1.5t69 26 q105 56 191 98.5t201 107.5t470 271q5 3 27.5 16t38.5 22t37.5 18t35.5 10q44 4 83 -21t42 -49q1 -11 -10 -26t-44.5 -46t-75.5 -69t-121 -113t-163 -159q-101 -101 -135 -148l111 10q49 4 78 5t85 1t89.5 -11.5t42.5 -32.5q6 -20 -9 -34t-44.5 -20t-54.5 -8.5t-55.5 -3 t-31.5 -0.5l-299 -25q-10 -14 -28 -44t-29 -46l100 11q55 6 107.5 8t114.5 -8.5t73 -38.5q6 -20 -9 -34t-44.5 -20t-54.5 -8.5t-55.5 -3t-31.5 -0.5l-266 -25l-2 -2l-160 -282q-8 -57 -70.5 -105t-131.5 -47q-41 0 -70 23t-29 49q0 42 47 130t125 196q-136 -22 -254 -62 q29 60 53.5 88t70.5 47t139 37l73 15q11 16 31.5 42.5t30.5 40.5q-100 -14 -244 -59q24 47 39 70.5t44 45.5t70 34t111 24l72 12q146 186 350 345l-8 2l-649 -359q-41 -23 -55.5 -30.5t-63 -32.5t-78 -37t-69.5 -24.5t-70 -14.5q-42 -4 -87 4t-74 26t-23 40q0 1 2 12 t4.5 16.5t13 23.5t26.5 35t48 48t74 66t107 86.5t146 111.5q29 21 65 47.5t58.5 43t50 37t44.5 33.5t35.5 28t29 25t19.5 20t12.5 17t3.5 13t-13 9.5t-22 0.5q-568 -194 -817 -301q-36 -15 -78 -20q-36 -3 -45 6z" />
<glyph unicode="&#xa8;" horiz-adv-x="917" d="M276 993q1 16 10.5 42t27 55t48 47t66.5 12q23 -3 37 -6t33 -10.5t27.5 -21.5t6.5 -34q-6 -54 -40 -109t-86 -55q-45 0 -89 21t-41 59zM666 993q1 16 10.5 42t26.5 55t47.5 47t66.5 12q24 -3 37.5 -6t33 -10.5t28 -21.5t6.5 -34q-6 -53 -40.5 -108.5t-86.5 -55.5 q-45 0 -88.5 21t-40.5 59z" />
<glyph unicode="&#xa9;" horiz-adv-x="1781" d="M127 723q0 209 102 384.5t277.5 277.5t384.5 102t384.5 -102t277.5 -277.5t102 -384.5q0 -208 -102 -383.5t-278 -278t-384 -102.5t-384 102.5t-278 278t-102 383.5zM319 723q0 -151 78.5 -283t210.5 -210t283 -78q113 0 218.5 46.5t182.5 123.5t123.5 182.5t46.5 218.5 t-46.5 218.5t-123.5 182.5t-182.5 123.5t-218.5 46.5q-151 0 -283 -78t-210.5 -210t-78.5 -283zM494 733q0 204 113.5 325.5t289.5 110.5q161 -11 250.5 -80.5t116.5 -224.5h-201q0 10 -1 16.5t-4.5 13.5t-6.5 11t-11 14.5t-14 18.5q-55 51 -131 51q-100 0 -147.5 -68.5 t-47.5 -187.5t47.5 -187.5t147.5 -68.5q68 0 118 37t50 88h201q-25 -157 -119 -229q-87 -67 -248 -76q-176 -12 -289.5 110t-113.5 326z" />
<glyph unicode="&#xab;" horiz-adv-x="782" d="M78 506q0 22 9 45t19 37.5t29 38.5q18 31 53.5 83.5t62.5 98t48 92.5q5 -13 24.5 -49t30.5 -65t11 -54q0 -8 -3 -17t-9 -18.5t-10 -15t-13.5 -16.5t-10.5 -13q-22 -24 -57 -79t-35 -76q0 -9 10 -23.5t38 -34t67 -30.5q38 -10 62 -35t24 -64q0 -36 -20.5 -58t-55.5 -22 q-28 0 -78 31t-95.5 73.5t-76 91t-24.5 79.5zM424 506q0 22 9 45t19 37.5t29 38.5q18 31 53.5 83.5t62.5 98t48 92.5q5 -13 24.5 -49t30.5 -65t11 -54q0 -7 -2.5 -15t-5.5 -14t-9 -14.5t-9 -13t-10.5 -13t-8.5 -10.5q-23 -25 -58 -79.5t-35 -75.5q0 -9 10 -23.5t38 -34 t67 -30.5q38 -10 62 -35t24 -64q0 -36 -20.5 -58t-55.5 -22q-28 0 -78 31t-95.5 73.5t-76 91t-24.5 79.5z" />
<glyph unicode="&#xad;" horiz-adv-x="655" d="M0 475v180h614v-180h-614z" />
<glyph unicode="&#xae;" horiz-adv-x="1781" d="M127 723q0 209 102 384.5t277.5 277.5t384.5 102t384.5 -102t277.5 -277.5t102 -384.5q0 -208 -102 -383.5t-278 -278t-384 -102.5t-384 102.5t-278 278t-102 383.5zM319 723q0 -150 78.5 -282t210.5 -210.5t283 -78.5q113 0 218.5 46.5t182.5 124t123.5 183t46.5 217.5 q0 113 -46.5 218.5t-123.5 182.5t-182.5 123.5t-218.5 46.5q-151 0 -283 -78t-210.5 -210t-78.5 -283zM575 369v751h367q51 0 74 -0.5t64.5 -8.5t66.5 -24q90 -55 90 -196q0 -100 -48 -148.5t-140 -56.5l165 -317h-206l-154 317h-98v-317h-181zM756 817h180q60 0 90.5 19 t30.5 73q0 23 -11 39t-24.5 24t-38 12t-39 4.5t-39.5 0.5h-149v-172z" />
<glyph unicode="&#xb4;" horiz-adv-x="716" d="M231 852q0 22 18.5 46t39.5 38q42 27 248 88l120 37q40 12 64 12q12 0 20.5 -4t13 -9t7.5 -15t3.5 -17.5t1 -21.5t1.5 -21q5 -66 -3 -77t-69 -7q-80 4 -174 -8q-127 -18 -194 -43q-40 -16 -68 -16q-29 0 -29 18z" />
<glyph unicode="&#xb8;" horiz-adv-x="696" d="M2 -270q0 8 5.5 15t12.5 7q12 0 60 -22.5t82 -22.5q38 0 71 19.5t33 54.5q0 67 -116 67l77 152h84l-57 -113q45 3 86 -4.5t73.5 -35.5t32.5 -74q0 -75 -64 -110t-146 -30q-30 1 -81.5 11.5t-102 34t-50.5 51.5z" />
<glyph unicode="&#xbb;" horiz-adv-x="782" d="M133 821q0 36 20.5 58t55.5 22q39 0 108.5 -49.5t121.5 -116.5t44 -108q0 -22 -9 -45t-19 -37.5t-29 -38.5q-18 -30 -53.5 -83.5t-62.5 -99t-48 -92.5q-5 12 -24 48.5t-30 65.5t-11 54q0 7 2.5 15t5.5 14t9 14.5t9 13t10.5 13t8.5 10.5q22 24 57 79.5t35 76.5 q0 9 -10 23.5t-38 34t-67 30.5q-38 10 -62 34.5t-24 63.5zM479 821q0 36 20.5 58t55.5 22q39 0 108.5 -49.5t121.5 -116.5t44 -108q0 -22 -9 -45t-19 -37.5t-29 -38.5q-18 -30 -53.5 -83.5t-62.5 -99t-48 -92.5q-5 12 -24 48.5t-30 65.5t-11 54q0 7 2.5 15t5.5 14t9 14.5 t9 13t10.5 13t8.5 10.5q22 24 57 79.5t35 76.5q0 9 -10 23.5t-38 34t-67 30.5q-38 10 -62 34.5t-24 63.5z" />
<glyph unicode="&#x2c6;" horiz-adv-x="819" d="M154 850q0 68 129 119l166 65q123 47 167 47q9 0 18.5 -2.5t19.5 -9t17.5 -11.5t18 -15.5l15 -15t15.5 -16.5t13 -14t17 -16t24.5 -23.5t19 -24t9.5 -24.5q0 -13 -8 -25t-13.5 -16.5t-21.5 -15.5q-32 -20 -41 -31q-21 12 -59.5 47.5t-73.5 62.5t-62 27q-17 0 -102 -34 l-180 -76q-63 -27 -70 -27q-18 0 -18 29z" />
<glyph unicode="&#x2da;" horiz-adv-x="602" d="M442 975q0 49 36 101t76.5 82t61.5 30q10 0 20.5 -4.5t24 -13.5t17.5 -11l74 -41q20 -20 20 -63q0 -57 -17 -106.5t-58.5 -85.5t-100.5 -36q-60 0 -107 44t-47 104zM545 915q0 -3 5 -10t5 -10q3 3 14 12.5t14 12.5t12.5 11.5t12.5 12t10 12t9.5 13.5t7 13.5t6 16t3 16.5 t1.5 19q0 27 -6 51q-49 -36 -71.5 -74.5t-22.5 -95.5z" />
<glyph unicode="&#x2dc;" horiz-adv-x="696" d="M231 924q0 48 16.5 72t61.5 24l266 -27l5 4q-72 50 -72 72q0 10 9 19.5t18 9.5q34 0 94.5 -59t60.5 -113q0 -42 -23 -64t-65 -22q-41 0 -126 14.5t-128 13.5q9 -8 18.5 -16.5t13.5 -12t8.5 -7.5t5.5 -7l2 -6t1 -8q0 -7 -6.5 -13.5t-13.5 -6.5q-16 0 -55 28 q-5 4 -23.5 15.5t-26 18t-19.5 18t-17 24.5t-5 29z" />
<glyph unicode="&#x2000;" horiz-adv-x="829" />
<glyph unicode="&#x2001;" horiz-adv-x="1659" />
<glyph unicode="&#x2002;" horiz-adv-x="829" />
<glyph unicode="&#x2003;" horiz-adv-x="1659" />
<glyph unicode="&#x2004;" horiz-adv-x="553" />
<glyph unicode="&#x2005;" horiz-adv-x="414" />
<glyph unicode="&#x2006;" horiz-adv-x="276" />
<glyph unicode="&#x2007;" horiz-adv-x="276" />
<glyph unicode="&#x2008;" horiz-adv-x="207" />
<glyph unicode="&#x2009;" horiz-adv-x="331" />
<glyph unicode="&#x200a;" horiz-adv-x="92" />
<glyph unicode="&#x2010;" horiz-adv-x="655" d="M0 475v180h614v-180h-614z" />
<glyph unicode="&#x2011;" horiz-adv-x="655" d="M0 475v180h614v-180h-614z" />
<glyph unicode="&#x2012;" horiz-adv-x="655" d="M0 475v180h614v-180h-614z" />
<glyph unicode="&#x2013;" horiz-adv-x="1024" d="M0 475v180h1024v-180h-1024z" />
<glyph unicode="&#x2014;" horiz-adv-x="2048" d="M0 475v180h2048v-180h-2048z" />
<glyph unicode="&#x2018;" horiz-adv-x="616" d="M219 1049q0 39 34 116.5t62 110.5q22 28 42.5 49.5t35.5 36t31.5 24t25 15t23 8t18.5 3t18.5 0t16.5 -0.5q-66 -86 -92 -139q25 -8 38 -13.5t26.5 -21t13.5 -37.5q0 -64 -61.5 -131.5t-126.5 -67.5q-105 0 -105 48z" />
<glyph unicode="&#x2019;" horiz-adv-x="616" d="M358 993q67 88 93 140q-26 8 -38.5 13.5t-26 20.5t-13.5 37q0 64 61.5 131.5t126.5 67.5q105 0 105 -47q0 -39 -34.5 -117t-62.5 -111q-22 -28 -42.5 -49.5t-35.5 -36t-31.5 -24t-25 -15t-23 -8t-18.5 -3t-18.5 0t-16.5 0.5z" />
<glyph unicode="&#x201a;" horiz-adv-x="616" d="M100 -123q69 90 93 139q-25 8 -38 13.5t-26.5 21t-13.5 37.5q0 64 61.5 131.5t126.5 67.5q105 0 105 -47q0 -39 -34.5 -117t-62.5 -111q-22 -28 -42.5 -49.5t-35.5 -36t-31.5 -24t-25 -15t-23 -8t-18.5 -3t-18.5 0t-16.5 0.5z" />
<glyph unicode="&#x201c;" horiz-adv-x="962" d="M319 1049q0 39 34.5 116.5t62.5 110.5q22 28 42.5 49.5t35.5 36t31.5 24t25 15t23 8t18.5 3t18.5 0t16.5 -0.5q-66 -86 -92 -139q25 -8 38 -14t26 -21t13 -37q0 -64 -61.5 -131.5t-126.5 -67.5q-105 0 -105 48zM666 1049q0 39 34 116.5t62 110.5q22 28 42.5 49.5t35.5 36 t31.5 24t25 15t23 8t18.5 3t18.5 0t16.5 -0.5q-66 -86 -92 -139q25 -8 38 -14t26 -21t13 -37q0 -64 -61.5 -131.5t-126.5 -67.5q-104 0 -104 48z" />
<glyph unicode="&#x201d;" horiz-adv-x="962" d="M252 993q65 84 92 140q-26 8 -38.5 13.5t-26 20.5t-13.5 37q0 64 62 131.5t127 67.5q104 0 104 -47q0 -39 -34 -117t-62 -111q-22 -28 -42.5 -49.5t-35.5 -36t-31.5 -24t-25 -15t-23 -8t-18.5 -3t-18.5 0t-16.5 0.5zM598 993q65 84 92 140q-26 8 -38.5 13.5t-26 20.5 t-13.5 37q0 64 62 131.5t127 67.5q104 0 104 -47q0 -39 -34 -117t-62 -111q-22 -28 -42.5 -49.5t-35.5 -36t-31.5 -24t-25 -15t-23 -8t-18.5 -3t-18.5 0t-16.5 0.5z" />
<glyph unicode="&#x201e;" horiz-adv-x="962" d="M100 -123q69 90 93 139q-25 8 -38 13.5t-26.5 21t-13.5 37.5q0 64 61.5 131.5t126.5 67.5q105 0 105 -47q0 -39 -34.5 -117t-62.5 -111q-22 -28 -42.5 -49.5t-35.5 -36t-31.5 -24t-25 -15t-23 -8t-18.5 -3t-18.5 0t-16.5 0.5zM446 -123q69 90 93 139q-25 8 -38 13.5 t-26.5 21t-13.5 37.5q0 64 61.5 131.5t126.5 67.5q105 0 105 -47q0 -39 -34.5 -117t-62.5 -111q-22 -28 -42.5 -49.5t-35.5 -36t-31.5 -24t-25 -15t-23 -8t-18.5 -3t-18.5 0t-16.5 0.5z" />
<glyph unicode="&#x2022;" horiz-adv-x="819" d="M109 604q0 34 15 92t51.5 131t87 134t131.5 98t175 26q58 0 111 -11.5t100.5 -35.5t76 -69t28.5 -105q0 -65 -28 -149.5t-76.5 -164t-124.5 -134t-160 -54.5q-43 0 -93 8.5t-102.5 27.5t-95 46t-69.5 69t-27 91z" />
<glyph unicode="&#x2026;" horiz-adv-x="2048" d="M188 76q0 40 26.5 95t76.5 95.5t104 28.5q2 0 20.5 -3t28.5 -6t24 -9.5t21 -18.5t7 -29q0 -3 -6 -27t-20.5 -62t-34 -72.5t-51 -58t-67.5 -19.5q-27 3 -44.5 6.5t-39.5 12t-33.5 25.5t-11.5 42zM870 76q0 40 26.5 95t76.5 95.5t104 28.5q2 0 20.5 -3t28.5 -6t24 -9.5 t21 -18.5t7 -29q0 -3 -6 -27t-20.5 -62t-34 -72.5t-51 -58t-67.5 -19.5q-27 3 -44.5 6.5t-39.5 12t-33.5 25.5t-11.5 42zM1552 76q0 40 26.5 95t76.5 95.5t104 28.5q2 0 20.5 -3t28.5 -6t24 -9.5t21 -18.5t7 -29q0 -3 -6 -27t-20.5 -62t-34 -72.5t-51 -58t-67.5 -19.5 q-27 3 -44.5 6.5t-39.5 12t-33.5 25.5t-11.5 42z" />
<glyph unicode="&#x202f;" horiz-adv-x="331" />
<glyph unicode="&#x2039;" horiz-adv-x="436" d="M78 506q0 22 9 45t19 37.5t29 38.5q18 31 53.5 83.5t62.5 98t48 92.5q5 -13 24.5 -49t30.5 -65t11 -54q0 -8 -3 -17t-9 -18.5t-10 -15t-13.5 -16.5t-10.5 -13q-22 -24 -57 -79t-35 -76q0 -9 10 -23.5t38 -34t67 -30.5q38 -10 62 -35t24 -64q0 -36 -20.5 -58t-55.5 -22 q-28 0 -78 31t-95.5 73.5t-76 91t-24.5 79.5z" />
<glyph unicode="&#x203a;" horiz-adv-x="436" d="M143 821q0 36 20.5 58t55.5 22q39 0 108.5 -49.5t122 -116.5t44.5 -108q0 -22 -9.5 -45.5t-19.5 -37t-29 -38.5q-18 -30 -53.5 -83.5t-62.5 -99t-48 -92.5q-5 12 -24 48.5t-30 65.5t-11 54q0 7 2.5 15t5.5 14t9 14.5t9 13t10.5 13t8.5 10.5q22 24 57 79.5t35 76.5 q0 9 -10 23.5t-38 34t-67 30.5q-38 10 -62 34.5t-24 63.5z" />
<glyph unicode="&#x205f;" horiz-adv-x="414" />
<glyph unicode="&#x20ac;" d="M82 432l102 164h82q2 17 13 61q9 36 18 56h-145l102 164h98q94 209 255.5 330.5t393.5 121.5q106 0 189.5 -24t122.5 -54l-53 -213q-36 41 -107 69t-176 28q-146 0 -247.5 -68t-154.5 -190h572l-103 -164h-536q-11 -37 -14 -54q-13 -51 -15 -63h492l-103 -164h-405 q-8 -128 62 -197t214 -69q190 0 328 98l-55 -217q-44 -28 -138 -51t-212 -23q-218 0 -326.5 114.5t-91.5 344.5h-162z" />
<glyph unicode="&#x2122;" horiz-adv-x="1499" d="M145 1251v150h562v-150h-193v-514h-180v514h-189zM782 737v664h271l114 -328h4l113 328h268v-664h-180v469h-4l-158 -469h-84l-159 469h-4v-469h-181z" />
<glyph unicode="&#xe000;" horiz-adv-x="798" d="M0 0v799h799v-799h-799z" />
</font>
</defs>
</svg>
